<?xml version="1.0" encoding="utf-8" standalone="no"?>
<!DOCTYPE svg PUBLIC "-//W3C//DTD SVG 1.1//EN"
  "http://www.w3.org/Graphics/SVG/1.1/DTD/svg11.dtd">
<!-- Created with matplotlib (http://matplotlib.org/) -->
<svg height="576pt" version="1.1" viewBox="0 0 1728 576" width="1728pt" xmlns="http://www.w3.org/2000/svg" xmlns:xlink="http://www.w3.org/1999/xlink">
 <defs>
  <style type="text/css">
*{stroke-linecap:butt;stroke-linejoin:round;}
  </style>
 </defs>
 <g id="figure_1">
  <g id="patch_1">
   <path d="M 0 576 
L 1728 576 
L 1728 0 
L 0 0 
z
" style="fill:#ffffff;"/>
  </g>
  <g id="axes_1">
   <g id="patch_2">
    <path d="M 216 504 
L 824.727273 504 
L 824.727273 69.12 
L 216 69.12 
z
" style="fill:#ffffff;"/>
   </g>
   <g id="patch_3">
    <path clip-path="url(#p9eb06e0456)" d="M 243.669421 504 
L 281.355372 504 
L 281.355372 450.15276 
L 243.669421 450.15276 
z
" style="fill:#fd9a4e;"/>
   </g>
   <g id="patch_4">
    <path clip-path="url(#p9eb06e0456)" d="M 442.016529 504 
L 479.702479 504 
L 479.702479 449.165561 
L 442.016529 449.165561 
z
" style="fill:#fb7a5a;"/>
   </g>
   <g id="patch_5">
    <path clip-path="url(#p9eb06e0456)" d="M 640.363636 504 
L 678.049587 504 
L 678.049587 449.165561 
L 640.363636 449.165561 
z
" style="fill:#86cc85;"/>
   </g>
   <g id="patch_6">
    <path clip-path="url(#p9eb06e0456)" d="M 283.338843 504 
L 321.024793 504 
L 321.024793 399.895337 
L 283.338843 399.895337 
z
" style="fill:#fd9a4e;"/>
   </g>
   <g id="patch_7">
    <path clip-path="url(#p9eb06e0456)" d="M 481.68595 504 
L 519.371901 504 
L 519.371901 399.216861 
L 481.68595 399.216861 
z
" style="fill:#fb7a5a;"/>
   </g>
   <g id="patch_8">
    <path clip-path="url(#p9eb06e0456)" d="M 680.033058 504 
L 717.719008 504 
L 717.719008 400.886126 
L 680.033058 400.886126 
z
" style="fill:#86cc85;"/>
   </g>
   <g id="patch_9">
    <path clip-path="url(#p9eb06e0456)" d="M 323.008264 504 
L 360.694215 504 
L 360.694215 295.790673 
L 323.008264 295.790673 
z
" style="fill:#fd9a4e;"/>
   </g>
   <g id="patch_10">
    <path clip-path="url(#p9eb06e0456)" d="M 521.355372 504 
L 559.041322 504 
L 559.041322 295.183994 
L 521.355372 295.183994 
z
" style="fill:#fb7a5a;"/>
   </g>
   <g id="patch_11">
    <path clip-path="url(#p9eb06e0456)" d="M 719.702479 504 
L 757.38843 504 
L 757.38843 298.361341 
L 719.702479 298.361341 
z
" style="fill:#86cc85;"/>
   </g>
   <g id="patch_12">
    <path clip-path="url(#p9eb06e0456)" d="M 362.677686 504 
L 400.363636 504 
L 400.363636 96.555887 
L 362.677686 96.555887 
z
" style="fill:#fd9a4e;"/>
   </g>
   <g id="patch_13">
    <path clip-path="url(#p9eb06e0456)" d="M 561.024793 504 
L 598.710744 504 
L 598.710744 89.828571 
L 561.024793 89.828571 
z
" style="fill:#fb7a5a;"/>
   </g>
   <g id="patch_14">
    <path clip-path="url(#p9eb06e0456)" d="M 759.371901 504 
L 797.057851 504 
L 797.057851 94.025066 
L 759.371901 94.025066 
z
" style="fill:#86cc85;"/>
   </g>
   <g id="matplotlib.axis_1">
    <g id="xtick_1">
     <g id="line2d_1">
      <path clip-path="url(#p9eb06e0456)" d="M 322.016529 504 
L 322.016529 69.12 
" style="fill:none;stroke:#b0b0b0;stroke-linecap:square;stroke-width:0.8;"/>
     </g>
     <g id="line2d_2">
      <defs>
       <path d="M 0 0 
L 0 3.5 
" id="m03386776f4" style="stroke:#000000;stroke-width:0.8;"/>
      </defs>
      <g>
       <use style="stroke:#000000;stroke-width:0.8;" x="322.016529" xlink:href="#m03386776f4" y="504"/>
      </g>
     </g>
     <g id="text_1">
      <!-- p2.8xlarge run by Google -->
      <defs>
       <path d="M 18.109375 8.203125 
L 18.109375 -20.796875 
L 9.078125 -20.796875 
L 9.078125 54.6875 
L 18.109375 54.6875 
L 18.109375 46.390625 
Q 20.953125 51.265625 25.265625 53.625 
Q 29.59375 56 35.59375 56 
Q 45.5625 56 51.78125 48.09375 
Q 58.015625 40.1875 58.015625 27.296875 
Q 58.015625 14.40625 51.78125 6.484375 
Q 45.5625 -1.421875 35.59375 -1.421875 
Q 29.59375 -1.421875 25.265625 0.953125 
Q 20.953125 3.328125 18.109375 8.203125 
z
M 48.6875 27.296875 
Q 48.6875 37.203125 44.609375 42.84375 
Q 40.53125 48.484375 33.40625 48.484375 
Q 26.265625 48.484375 22.1875 42.84375 
Q 18.109375 37.203125 18.109375 27.296875 
Q 18.109375 17.390625 22.1875 11.75 
Q 26.265625 6.109375 33.40625 6.109375 
Q 40.53125 6.109375 44.609375 11.75 
Q 48.6875 17.390625 48.6875 27.296875 
z
" id="DejaVuSans-70"/>
       <path d="M 19.1875 8.296875 
L 53.609375 8.296875 
L 53.609375 0 
L 7.328125 0 
L 7.328125 8.296875 
Q 12.9375 14.109375 22.625 23.890625 
Q 32.328125 33.6875 34.8125 36.53125 
Q 39.546875 41.84375 41.421875 45.53125 
Q 43.3125 49.21875 43.3125 52.78125 
Q 43.3125 58.59375 39.234375 62.25 
Q 35.15625 65.921875 28.609375 65.921875 
Q 23.96875 65.921875 18.8125 64.3125 
Q 13.671875 62.703125 7.8125 59.421875 
L 7.8125 69.390625 
Q 13.765625 71.78125 18.9375 73 
Q 24.125 74.21875 28.421875 74.21875 
Q 39.75 74.21875 46.484375 68.546875 
Q 53.21875 62.890625 53.21875 53.421875 
Q 53.21875 48.921875 51.53125 44.890625 
Q 49.859375 40.875 45.40625 35.40625 
Q 44.1875 33.984375 37.640625 27.21875 
Q 31.109375 20.453125 19.1875 8.296875 
z
" id="DejaVuSans-32"/>
       <path d="M 10.6875 12.40625 
L 21 12.40625 
L 21 0 
L 10.6875 0 
z
" id="DejaVuSans-2e"/>
       <path d="M 31.78125 34.625 
Q 24.75 34.625 20.71875 30.859375 
Q 16.703125 27.09375 16.703125 20.515625 
Q 16.703125 13.921875 20.71875 10.15625 
Q 24.75 6.390625 31.78125 6.390625 
Q 38.8125 6.390625 42.859375 10.171875 
Q 46.921875 13.96875 46.921875 20.515625 
Q 46.921875 27.09375 42.890625 30.859375 
Q 38.875 34.625 31.78125 34.625 
z
M 21.921875 38.8125 
Q 15.578125 40.375 12.03125 44.71875 
Q 8.5 49.078125 8.5 55.328125 
Q 8.5 64.0625 14.71875 69.140625 
Q 20.953125 74.21875 31.78125 74.21875 
Q 42.671875 74.21875 48.875 69.140625 
Q 55.078125 64.0625 55.078125 55.328125 
Q 55.078125 49.078125 51.53125 44.71875 
Q 48 40.375 41.703125 38.8125 
Q 48.828125 37.15625 52.796875 32.3125 
Q 56.78125 27.484375 56.78125 20.515625 
Q 56.78125 9.90625 50.3125 4.234375 
Q 43.84375 -1.421875 31.78125 -1.421875 
Q 19.734375 -1.421875 13.25 4.234375 
Q 6.78125 9.90625 6.78125 20.515625 
Q 6.78125 27.484375 10.78125 32.3125 
Q 14.796875 37.15625 21.921875 38.8125 
z
M 18.3125 54.390625 
Q 18.3125 48.734375 21.84375 45.5625 
Q 25.390625 42.390625 31.78125 42.390625 
Q 38.140625 42.390625 41.71875 45.5625 
Q 45.3125 48.734375 45.3125 54.390625 
Q 45.3125 60.0625 41.71875 63.234375 
Q 38.140625 66.40625 31.78125 66.40625 
Q 25.390625 66.40625 21.84375 63.234375 
Q 18.3125 60.0625 18.3125 54.390625 
z
" id="DejaVuSans-38"/>
       <path d="M 54.890625 54.6875 
L 35.109375 28.078125 
L 55.90625 0 
L 45.3125 0 
L 29.390625 21.484375 
L 13.484375 0 
L 2.875 0 
L 24.125 28.609375 
L 4.6875 54.6875 
L 15.28125 54.6875 
L 29.78125 35.203125 
L 44.28125 54.6875 
z
" id="DejaVuSans-78"/>
       <path d="M 9.421875 75.984375 
L 18.40625 75.984375 
L 18.40625 0 
L 9.421875 0 
z
" id="DejaVuSans-6c"/>
       <path d="M 34.28125 27.484375 
Q 23.390625 27.484375 19.1875 25 
Q 14.984375 22.515625 14.984375 16.5 
Q 14.984375 11.71875 18.140625 8.90625 
Q 21.296875 6.109375 26.703125 6.109375 
Q 34.1875 6.109375 38.703125 11.40625 
Q 43.21875 16.703125 43.21875 25.484375 
L 43.21875 27.484375 
z
M 52.203125 31.203125 
L 52.203125 0 
L 43.21875 0 
L 43.21875 8.296875 
Q 40.140625 3.328125 35.546875 0.953125 
Q 30.953125 -1.421875 24.3125 -1.421875 
Q 15.921875 -1.421875 10.953125 3.296875 
Q 6 8.015625 6 15.921875 
Q 6 25.140625 12.171875 29.828125 
Q 18.359375 34.515625 30.609375 34.515625 
L 43.21875 34.515625 
L 43.21875 35.40625 
Q 43.21875 41.609375 39.140625 45 
Q 35.0625 48.390625 27.6875 48.390625 
Q 23 48.390625 18.546875 47.265625 
Q 14.109375 46.140625 10.015625 43.890625 
L 10.015625 52.203125 
Q 14.9375 54.109375 19.578125 55.046875 
Q 24.21875 56 28.609375 56 
Q 40.484375 56 46.34375 49.84375 
Q 52.203125 43.703125 52.203125 31.203125 
z
" id="DejaVuSans-61"/>
       <path d="M 41.109375 46.296875 
Q 39.59375 47.171875 37.8125 47.578125 
Q 36.03125 48 33.890625 48 
Q 26.265625 48 22.1875 43.046875 
Q 18.109375 38.09375 18.109375 28.8125 
L 18.109375 0 
L 9.078125 0 
L 9.078125 54.6875 
L 18.109375 54.6875 
L 18.109375 46.1875 
Q 20.953125 51.171875 25.484375 53.578125 
Q 30.03125 56 36.53125 56 
Q 37.453125 56 38.578125 55.875 
Q 39.703125 55.765625 41.0625 55.515625 
z
" id="DejaVuSans-72"/>
       <path d="M 45.40625 27.984375 
Q 45.40625 37.75 41.375 43.109375 
Q 37.359375 48.484375 30.078125 48.484375 
Q 22.859375 48.484375 18.828125 43.109375 
Q 14.796875 37.75 14.796875 27.984375 
Q 14.796875 18.265625 18.828125 12.890625 
Q 22.859375 7.515625 30.078125 7.515625 
Q 37.359375 7.515625 41.375 12.890625 
Q 45.40625 18.265625 45.40625 27.984375 
z
M 54.390625 6.78125 
Q 54.390625 -7.171875 48.1875 -13.984375 
Q 42 -20.796875 29.203125 -20.796875 
Q 24.46875 -20.796875 20.265625 -20.09375 
Q 16.0625 -19.390625 12.109375 -17.921875 
L 12.109375 -9.1875 
Q 16.0625 -11.328125 19.921875 -12.34375 
Q 23.78125 -13.375 27.78125 -13.375 
Q 36.625 -13.375 41.015625 -8.765625 
Q 45.40625 -4.15625 45.40625 5.171875 
L 45.40625 9.625 
Q 42.625 4.78125 38.28125 2.390625 
Q 33.9375 0 27.875 0 
Q 17.828125 0 11.671875 7.65625 
Q 5.515625 15.328125 5.515625 27.984375 
Q 5.515625 40.671875 11.671875 48.328125 
Q 17.828125 56 27.875 56 
Q 33.9375 56 38.28125 53.609375 
Q 42.625 51.21875 45.40625 46.390625 
L 45.40625 54.6875 
L 54.390625 54.6875 
z
" id="DejaVuSans-67"/>
       <path d="M 56.203125 29.59375 
L 56.203125 25.203125 
L 14.890625 25.203125 
Q 15.484375 15.921875 20.484375 11.0625 
Q 25.484375 6.203125 34.421875 6.203125 
Q 39.59375 6.203125 44.453125 7.46875 
Q 49.3125 8.734375 54.109375 11.28125 
L 54.109375 2.78125 
Q 49.265625 0.734375 44.1875 -0.34375 
Q 39.109375 -1.421875 33.890625 -1.421875 
Q 20.796875 -1.421875 13.15625 6.1875 
Q 5.515625 13.8125 5.515625 26.8125 
Q 5.515625 40.234375 12.765625 48.109375 
Q 20.015625 56 32.328125 56 
Q 43.359375 56 49.78125 48.890625 
Q 56.203125 41.796875 56.203125 29.59375 
z
M 47.21875 32.234375 
Q 47.125 39.59375 43.09375 43.984375 
Q 39.0625 48.390625 32.421875 48.390625 
Q 24.90625 48.390625 20.390625 44.140625 
Q 15.875 39.890625 15.1875 32.171875 
z
" id="DejaVuSans-65"/>
       <path id="DejaVuSans-20"/>
       <path d="M 8.5 21.578125 
L 8.5 54.6875 
L 17.484375 54.6875 
L 17.484375 21.921875 
Q 17.484375 14.15625 20.5 10.265625 
Q 23.53125 6.390625 29.59375 6.390625 
Q 36.859375 6.390625 41.078125 11.03125 
Q 45.3125 15.671875 45.3125 23.6875 
L 45.3125 54.6875 
L 54.296875 54.6875 
L 54.296875 0 
L 45.3125 0 
L 45.3125 8.40625 
Q 42.046875 3.421875 37.71875 1 
Q 33.40625 -1.421875 27.6875 -1.421875 
Q 18.265625 -1.421875 13.375 4.4375 
Q 8.5 10.296875 8.5 21.578125 
z
M 31.109375 56 
z
" id="DejaVuSans-75"/>
       <path d="M 54.890625 33.015625 
L 54.890625 0 
L 45.90625 0 
L 45.90625 32.71875 
Q 45.90625 40.484375 42.875 44.328125 
Q 39.84375 48.1875 33.796875 48.1875 
Q 26.515625 48.1875 22.3125 43.546875 
Q 18.109375 38.921875 18.109375 30.90625 
L 18.109375 0 
L 9.078125 0 
L 9.078125 54.6875 
L 18.109375 54.6875 
L 18.109375 46.1875 
Q 21.34375 51.125 25.703125 53.5625 
Q 30.078125 56 35.796875 56 
Q 45.21875 56 50.046875 50.171875 
Q 54.890625 44.34375 54.890625 33.015625 
z
" id="DejaVuSans-6e"/>
       <path d="M 48.6875 27.296875 
Q 48.6875 37.203125 44.609375 42.84375 
Q 40.53125 48.484375 33.40625 48.484375 
Q 26.265625 48.484375 22.1875 42.84375 
Q 18.109375 37.203125 18.109375 27.296875 
Q 18.109375 17.390625 22.1875 11.75 
Q 26.265625 6.109375 33.40625 6.109375 
Q 40.53125 6.109375 44.609375 11.75 
Q 48.6875 17.390625 48.6875 27.296875 
z
M 18.109375 46.390625 
Q 20.953125 51.265625 25.265625 53.625 
Q 29.59375 56 35.59375 56 
Q 45.5625 56 51.78125 48.09375 
Q 58.015625 40.1875 58.015625 27.296875 
Q 58.015625 14.40625 51.78125 6.484375 
Q 45.5625 -1.421875 35.59375 -1.421875 
Q 29.59375 -1.421875 25.265625 0.953125 
Q 20.953125 3.328125 18.109375 8.203125 
L 18.109375 0 
L 9.078125 0 
L 9.078125 75.984375 
L 18.109375 75.984375 
z
" id="DejaVuSans-62"/>
       <path d="M 32.171875 -5.078125 
Q 28.375 -14.84375 24.75 -17.8125 
Q 21.140625 -20.796875 15.09375 -20.796875 
L 7.90625 -20.796875 
L 7.90625 -13.28125 
L 13.1875 -13.28125 
Q 16.890625 -13.28125 18.9375 -11.515625 
Q 21 -9.765625 23.484375 -3.21875 
L 25.09375 0.875 
L 2.984375 54.6875 
L 12.5 54.6875 
L 29.59375 11.921875 
L 46.6875 54.6875 
L 56.203125 54.6875 
z
" id="DejaVuSans-79"/>
       <path d="M 59.515625 10.40625 
L 59.515625 29.984375 
L 43.40625 29.984375 
L 43.40625 38.09375 
L 69.28125 38.09375 
L 69.28125 6.78125 
Q 63.578125 2.734375 56.6875 0.65625 
Q 49.8125 -1.421875 42 -1.421875 
Q 24.90625 -1.421875 15.25 8.5625 
Q 5.609375 18.5625 5.609375 36.375 
Q 5.609375 54.25 15.25 64.234375 
Q 24.90625 74.21875 42 74.21875 
Q 49.125 74.21875 55.546875 72.453125 
Q 61.96875 70.703125 67.390625 67.28125 
L 67.390625 56.78125 
Q 61.921875 61.421875 55.765625 63.765625 
Q 49.609375 66.109375 42.828125 66.109375 
Q 29.4375 66.109375 22.71875 58.640625 
Q 16.015625 51.171875 16.015625 36.375 
Q 16.015625 21.625 22.71875 14.15625 
Q 29.4375 6.6875 42.828125 6.6875 
Q 48.046875 6.6875 52.140625 7.59375 
Q 56.25 8.5 59.515625 10.40625 
z
" id="DejaVuSans-47"/>
       <path d="M 30.609375 48.390625 
Q 23.390625 48.390625 19.1875 42.75 
Q 14.984375 37.109375 14.984375 27.296875 
Q 14.984375 17.484375 19.15625 11.84375 
Q 23.34375 6.203125 30.609375 6.203125 
Q 37.796875 6.203125 41.984375 11.859375 
Q 46.1875 17.53125 46.1875 27.296875 
Q 46.1875 37.015625 41.984375 42.703125 
Q 37.796875 48.390625 30.609375 48.390625 
z
M 30.609375 56 
Q 42.328125 56 49.015625 48.375 
Q 55.71875 40.765625 55.71875 27.296875 
Q 55.71875 13.875 49.015625 6.21875 
Q 42.328125 -1.421875 30.609375 -1.421875 
Q 18.84375 -1.421875 12.171875 6.21875 
Q 5.515625 13.875 5.515625 27.296875 
Q 5.515625 40.765625 12.171875 48.375 
Q 18.84375 56 30.609375 56 
z
" id="DejaVuSans-6f"/>
      </defs>
      <g transform="translate(245.492154 520.118125)scale(0.12 -0.12)">
       <use xlink:href="#DejaVuSans-70"/>
       <use x="63.476562" xlink:href="#DejaVuSans-32"/>
       <use x="127.099609" xlink:href="#DejaVuSans-2e"/>
       <use x="158.886719" xlink:href="#DejaVuSans-38"/>
       <use x="222.509766" xlink:href="#DejaVuSans-78"/>
       <use x="281.689453" xlink:href="#DejaVuSans-6c"/>
       <use x="309.472656" xlink:href="#DejaVuSans-61"/>
       <use x="370.751953" xlink:href="#DejaVuSans-72"/>
       <use x="411.849609" xlink:href="#DejaVuSans-67"/>
       <use x="475.326172" xlink:href="#DejaVuSans-65"/>
       <use x="536.849609" xlink:href="#DejaVuSans-20"/>
       <use x="568.636719" xlink:href="#DejaVuSans-72"/>
       <use x="609.75" xlink:href="#DejaVuSans-75"/>
       <use x="673.128906" xlink:href="#DejaVuSans-6e"/>
       <use x="736.507812" xlink:href="#DejaVuSans-20"/>
       <use x="768.294922" xlink:href="#DejaVuSans-62"/>
       <use x="831.771484" xlink:href="#DejaVuSans-79"/>
       <use x="890.951172" xlink:href="#DejaVuSans-20"/>
       <use x="922.738281" xlink:href="#DejaVuSans-47"/>
       <use x="1000.228516" xlink:href="#DejaVuSans-6f"/>
       <use x="1061.410156" xlink:href="#DejaVuSans-6f"/>
       <use x="1122.591797" xlink:href="#DejaVuSans-67"/>
       <use x="1186.068359" xlink:href="#DejaVuSans-6c"/>
       <use x="1213.851562" xlink:href="#DejaVuSans-65"/>
      </g>
     </g>
    </g>
    <g id="xtick_2">
     <g id="line2d_3">
      <path clip-path="url(#p9eb06e0456)" d="M 520.363636 504 
L 520.363636 69.12 
" style="fill:none;stroke:#b0b0b0;stroke-linecap:square;stroke-width:0.8;"/>
     </g>
     <g id="line2d_4">
      <g>
       <use style="stroke:#000000;stroke-width:0.8;" x="520.363636" xlink:href="#m03386776f4" y="504"/>
      </g>
     </g>
     <g id="text_2">
      <!-- p2.8xlarge run by CSCS -->
      <defs>
       <path d="M 64.40625 67.28125 
L 64.40625 56.890625 
Q 59.421875 61.53125 53.78125 63.8125 
Q 48.140625 66.109375 41.796875 66.109375 
Q 29.296875 66.109375 22.65625 58.46875 
Q 16.015625 50.828125 16.015625 36.375 
Q 16.015625 21.96875 22.65625 14.328125 
Q 29.296875 6.6875 41.796875 6.6875 
Q 48.140625 6.6875 53.78125 8.984375 
Q 59.421875 11.28125 64.40625 15.921875 
L 64.40625 5.609375 
Q 59.234375 2.09375 53.4375 0.328125 
Q 47.65625 -1.421875 41.21875 -1.421875 
Q 24.65625 -1.421875 15.125 8.703125 
Q 5.609375 18.84375 5.609375 36.375 
Q 5.609375 53.953125 15.125 64.078125 
Q 24.65625 74.21875 41.21875 74.21875 
Q 47.75 74.21875 53.53125 72.484375 
Q 59.328125 70.75 64.40625 67.28125 
z
" id="DejaVuSans-43"/>
       <path d="M 53.515625 70.515625 
L 53.515625 60.890625 
Q 47.90625 63.578125 42.921875 64.890625 
Q 37.9375 66.21875 33.296875 66.21875 
Q 25.25 66.21875 20.875 63.09375 
Q 16.5 59.96875 16.5 54.203125 
Q 16.5 49.359375 19.40625 46.890625 
Q 22.3125 44.4375 30.421875 42.921875 
L 36.375 41.703125 
Q 47.40625 39.59375 52.65625 34.296875 
Q 57.90625 29 57.90625 20.125 
Q 57.90625 9.515625 50.796875 4.046875 
Q 43.703125 -1.421875 29.984375 -1.421875 
Q 24.8125 -1.421875 18.96875 -0.25 
Q 13.140625 0.921875 6.890625 3.21875 
L 6.890625 13.375 
Q 12.890625 10.015625 18.65625 8.296875 
Q 24.421875 6.59375 29.984375 6.59375 
Q 38.421875 6.59375 43.015625 9.90625 
Q 47.609375 13.234375 47.609375 19.390625 
Q 47.609375 24.75 44.3125 27.78125 
Q 41.015625 30.8125 33.5 32.328125 
L 27.484375 33.5 
Q 16.453125 35.6875 11.515625 40.375 
Q 6.59375 45.0625 6.59375 53.421875 
Q 6.59375 63.09375 13.40625 68.65625 
Q 20.21875 74.21875 32.171875 74.21875 
Q 37.3125 74.21875 42.625 73.28125 
Q 47.953125 72.359375 53.515625 70.515625 
z
" id="DejaVuSans-53"/>
      </defs>
      <g transform="translate(449.001136 520.118125)scale(0.12 -0.12)">
       <use xlink:href="#DejaVuSans-70"/>
       <use x="63.476562" xlink:href="#DejaVuSans-32"/>
       <use x="127.099609" xlink:href="#DejaVuSans-2e"/>
       <use x="158.886719" xlink:href="#DejaVuSans-38"/>
       <use x="222.509766" xlink:href="#DejaVuSans-78"/>
       <use x="281.689453" xlink:href="#DejaVuSans-6c"/>
       <use x="309.472656" xlink:href="#DejaVuSans-61"/>
       <use x="370.751953" xlink:href="#DejaVuSans-72"/>
       <use x="411.849609" xlink:href="#DejaVuSans-67"/>
       <use x="475.326172" xlink:href="#DejaVuSans-65"/>
       <use x="536.849609" xlink:href="#DejaVuSans-20"/>
       <use x="568.636719" xlink:href="#DejaVuSans-72"/>
       <use x="609.75" xlink:href="#DejaVuSans-75"/>
       <use x="673.128906" xlink:href="#DejaVuSans-6e"/>
       <use x="736.507812" xlink:href="#DejaVuSans-20"/>
       <use x="768.294922" xlink:href="#DejaVuSans-62"/>
       <use x="831.771484" xlink:href="#DejaVuSans-79"/>
       <use x="890.951172" xlink:href="#DejaVuSans-20"/>
       <use x="922.738281" xlink:href="#DejaVuSans-43"/>
       <use x="992.5625" xlink:href="#DejaVuSans-53"/>
       <use x="1056.039062" xlink:href="#DejaVuSans-43"/>
       <use x="1125.863281" xlink:href="#DejaVuSans-53"/>
      </g>
     </g>
    </g>
    <g id="xtick_3">
     <g id="line2d_5">
      <path clip-path="url(#p9eb06e0456)" d="M 718.710744 504 
L 718.710744 69.12 
" style="fill:none;stroke:#b0b0b0;stroke-linecap:square;stroke-width:0.8;"/>
     </g>
     <g id="line2d_6">
      <g>
       <use style="stroke:#000000;stroke-width:0.8;" x="718.710744" xlink:href="#m03386776f4" y="504"/>
      </g>
     </g>
     <g id="text_3">
      <!-- p2.xlarge run by CSCS -->
      <g transform="translate(651.165744 520.118125)scale(0.12 -0.12)">
       <use xlink:href="#DejaVuSans-70"/>
       <use x="63.476562" xlink:href="#DejaVuSans-32"/>
       <use x="127.099609" xlink:href="#DejaVuSans-2e"/>
       <use x="158.886719" xlink:href="#DejaVuSans-78"/>
       <use x="218.066406" xlink:href="#DejaVuSans-6c"/>
       <use x="245.849609" xlink:href="#DejaVuSans-61"/>
       <use x="307.128906" xlink:href="#DejaVuSans-72"/>
       <use x="348.226562" xlink:href="#DejaVuSans-67"/>
       <use x="411.703125" xlink:href="#DejaVuSans-65"/>
       <use x="473.226562" xlink:href="#DejaVuSans-20"/>
       <use x="505.013672" xlink:href="#DejaVuSans-72"/>
       <use x="546.126953" xlink:href="#DejaVuSans-75"/>
       <use x="609.505859" xlink:href="#DejaVuSans-6e"/>
       <use x="672.884766" xlink:href="#DejaVuSans-20"/>
       <use x="704.671875" xlink:href="#DejaVuSans-62"/>
       <use x="768.148438" xlink:href="#DejaVuSans-79"/>
       <use x="827.328125" xlink:href="#DejaVuSans-20"/>
       <use x="859.115234" xlink:href="#DejaVuSans-43"/>
       <use x="928.939453" xlink:href="#DejaVuSans-53"/>
       <use x="992.416016" xlink:href="#DejaVuSans-43"/>
       <use x="1062.240234" xlink:href="#DejaVuSans-53"/>
      </g>
     </g>
    </g>
    <g id="text_4">
     <!-- System -->
     <defs>
      <path d="M 44.28125 53.078125 
L 44.28125 44.578125 
Q 40.484375 46.53125 36.375 47.5 
Q 32.28125 48.484375 27.875 48.484375 
Q 21.1875 48.484375 17.84375 46.4375 
Q 14.5 44.390625 14.5 40.28125 
Q 14.5 37.15625 16.890625 35.375 
Q 19.28125 33.59375 26.515625 31.984375 
L 29.59375 31.296875 
Q 39.15625 29.25 43.1875 25.515625 
Q 47.21875 21.78125 47.21875 15.09375 
Q 47.21875 7.46875 41.1875 3.015625 
Q 35.15625 -1.421875 24.609375 -1.421875 
Q 20.21875 -1.421875 15.453125 -0.5625 
Q 10.6875 0.296875 5.421875 2 
L 5.421875 11.28125 
Q 10.40625 8.6875 15.234375 7.390625 
Q 20.0625 6.109375 24.8125 6.109375 
Q 31.15625 6.109375 34.5625 8.28125 
Q 37.984375 10.453125 37.984375 14.40625 
Q 37.984375 18.0625 35.515625 20.015625 
Q 33.0625 21.96875 24.703125 23.78125 
L 21.578125 24.515625 
Q 13.234375 26.265625 9.515625 29.90625 
Q 5.8125 33.546875 5.8125 39.890625 
Q 5.8125 47.609375 11.28125 51.796875 
Q 16.75 56 26.8125 56 
Q 31.78125 56 36.171875 55.265625 
Q 40.578125 54.546875 44.28125 53.078125 
z
" id="DejaVuSans-73"/>
      <path d="M 18.3125 70.21875 
L 18.3125 54.6875 
L 36.8125 54.6875 
L 36.8125 47.703125 
L 18.3125 47.703125 
L 18.3125 18.015625 
Q 18.3125 11.328125 20.140625 9.421875 
Q 21.96875 7.515625 27.59375 7.515625 
L 36.8125 7.515625 
L 36.8125 0 
L 27.59375 0 
Q 17.1875 0 13.234375 3.875 
Q 9.28125 7.765625 9.28125 18.015625 
L 9.28125 47.703125 
L 2.6875 47.703125 
L 2.6875 54.6875 
L 9.28125 54.6875 
L 9.28125 70.21875 
z
" id="DejaVuSans-74"/>
      <path d="M 52 44.1875 
Q 55.375 50.25 60.0625 53.125 
Q 64.75 56 71.09375 56 
Q 79.640625 56 84.28125 50.015625 
Q 88.921875 44.046875 88.921875 33.015625 
L 88.921875 0 
L 79.890625 0 
L 79.890625 32.71875 
Q 79.890625 40.578125 77.09375 44.375 
Q 74.3125 48.1875 68.609375 48.1875 
Q 61.625 48.1875 57.5625 43.546875 
Q 53.515625 38.921875 53.515625 30.90625 
L 53.515625 0 
L 44.484375 0 
L 44.484375 32.71875 
Q 44.484375 40.625 41.703125 44.40625 
Q 38.921875 48.1875 33.109375 48.1875 
Q 26.21875 48.1875 22.15625 43.53125 
Q 18.109375 38.875 18.109375 30.90625 
L 18.109375 0 
L 9.078125 0 
L 9.078125 54.6875 
L 18.109375 54.6875 
L 18.109375 46.1875 
Q 21.1875 51.21875 25.484375 53.609375 
Q 29.78125 56 35.6875 56 
Q 41.65625 56 45.828125 52.96875 
Q 50 49.953125 52 44.1875 
z
" id="DejaVuSans-6d"/>
     </defs>
     <g transform="translate(493.514386 537.5555)scale(0.144 -0.144)">
      <use xlink:href="#DejaVuSans-53"/>
      <use x="63.476562" xlink:href="#DejaVuSans-79"/>
      <use x="122.65625" xlink:href="#DejaVuSans-73"/>
      <use x="174.755859" xlink:href="#DejaVuSans-74"/>
      <use x="213.964844" xlink:href="#DejaVuSans-65"/>
      <use x="275.488281" xlink:href="#DejaVuSans-6d"/>
     </g>
    </g>
   </g>
   <g id="matplotlib.axis_2">
    <g id="ytick_1">
     <g id="line2d_7">
      <path clip-path="url(#p9eb06e0456)" d="M 216 504 
L 824.727273 504 
" style="fill:none;stroke:#b0b0b0;stroke-linecap:square;stroke-width:0.8;"/>
     </g>
     <g id="line2d_8">
      <defs>
       <path d="M 0 0 
L -3.5 0 
" id="md6b9aeb1af" style="stroke:#000000;stroke-width:0.8;"/>
      </defs>
      <g>
       <use style="stroke:#000000;stroke-width:0.8;" x="216" xlink:href="#md6b9aeb1af" y="504"/>
      </g>
     </g>
     <g id="text_5">
      <!-- 0 -->
      <defs>
       <path d="M 31.78125 66.40625 
Q 24.171875 66.40625 20.328125 58.90625 
Q 16.5 51.421875 16.5 36.375 
Q 16.5 21.390625 20.328125 13.890625 
Q 24.171875 6.390625 31.78125 6.390625 
Q 39.453125 6.390625 43.28125 13.890625 
Q 47.125 21.390625 47.125 36.375 
Q 47.125 51.421875 43.28125 58.90625 
Q 39.453125 66.40625 31.78125 66.40625 
z
M 31.78125 74.21875 
Q 44.046875 74.21875 50.515625 64.515625 
Q 56.984375 54.828125 56.984375 36.375 
Q 56.984375 17.96875 50.515625 8.265625 
Q 44.046875 -1.421875 31.78125 -1.421875 
Q 19.53125 -1.421875 13.0625 8.265625 
Q 6.59375 17.96875 6.59375 36.375 
Q 6.59375 54.828125 13.0625 64.515625 
Q 19.53125 74.21875 31.78125 74.21875 
z
" id="DejaVuSans-30"/>
      </defs>
      <g transform="translate(201.365 508.559062)scale(0.12 -0.12)">
       <use xlink:href="#DejaVuSans-30"/>
      </g>
     </g>
    </g>
    <g id="ytick_2">
     <g id="line2d_9">
      <path clip-path="url(#p9eb06e0456)" d="M 216 414.254601 
L 824.727273 414.254601 
" style="fill:none;stroke:#b0b0b0;stroke-linecap:square;stroke-width:0.8;"/>
     </g>
     <g id="line2d_10">
      <g>
       <use style="stroke:#000000;stroke-width:0.8;" x="216" xlink:href="#md6b9aeb1af" y="414.254601"/>
      </g>
     </g>
     <g id="text_6">
      <!-- 50 -->
      <defs>
       <path d="M 10.796875 72.90625 
L 49.515625 72.90625 
L 49.515625 64.59375 
L 19.828125 64.59375 
L 19.828125 46.734375 
Q 21.96875 47.46875 24.109375 47.828125 
Q 26.265625 48.1875 28.421875 48.1875 
Q 40.625 48.1875 47.75 41.5 
Q 54.890625 34.8125 54.890625 23.390625 
Q 54.890625 11.625 47.5625 5.09375 
Q 40.234375 -1.421875 26.90625 -1.421875 
Q 22.3125 -1.421875 17.546875 -0.640625 
Q 12.796875 0.140625 7.71875 1.703125 
L 7.71875 11.625 
Q 12.109375 9.234375 16.796875 8.0625 
Q 21.484375 6.890625 26.703125 6.890625 
Q 35.15625 6.890625 40.078125 11.328125 
Q 45.015625 15.765625 45.015625 23.390625 
Q 45.015625 31 40.078125 35.4375 
Q 35.15625 39.890625 26.703125 39.890625 
Q 22.75 39.890625 18.8125 39.015625 
Q 14.890625 38.140625 10.796875 36.28125 
z
" id="DejaVuSans-35"/>
      </defs>
      <g transform="translate(193.73 418.813663)scale(0.12 -0.12)">
       <use xlink:href="#DejaVuSans-35"/>
       <use x="63.623047" xlink:href="#DejaVuSans-30"/>
      </g>
     </g>
    </g>
    <g id="ytick_3">
     <g id="line2d_11">
      <path clip-path="url(#p9eb06e0456)" d="M 216 324.509201 
L 824.727273 324.509201 
" style="fill:none;stroke:#b0b0b0;stroke-linecap:square;stroke-width:0.8;"/>
     </g>
     <g id="line2d_12">
      <g>
       <use style="stroke:#000000;stroke-width:0.8;" x="216" xlink:href="#md6b9aeb1af" y="324.509201"/>
      </g>
     </g>
     <g id="text_7">
      <!-- 100 -->
      <defs>
       <path d="M 12.40625 8.296875 
L 28.515625 8.296875 
L 28.515625 63.921875 
L 10.984375 60.40625 
L 10.984375 69.390625 
L 28.421875 72.90625 
L 38.28125 72.90625 
L 38.28125 8.296875 
L 54.390625 8.296875 
L 54.390625 0 
L 12.40625 0 
z
" id="DejaVuSans-31"/>
      </defs>
      <g transform="translate(186.095 329.068264)scale(0.12 -0.12)">
       <use xlink:href="#DejaVuSans-31"/>
       <use x="63.623047" xlink:href="#DejaVuSans-30"/>
       <use x="127.246094" xlink:href="#DejaVuSans-30"/>
      </g>
     </g>
    </g>
    <g id="ytick_4">
     <g id="line2d_13">
      <path clip-path="url(#p9eb06e0456)" d="M 216 234.763802 
L 824.727273 234.763802 
" style="fill:none;stroke:#b0b0b0;stroke-linecap:square;stroke-width:0.8;"/>
     </g>
     <g id="line2d_14">
      <g>
       <use style="stroke:#000000;stroke-width:0.8;" x="216" xlink:href="#md6b9aeb1af" y="234.763802"/>
      </g>
     </g>
     <g id="text_8">
      <!-- 150 -->
      <g transform="translate(186.095 239.322864)scale(0.12 -0.12)">
       <use xlink:href="#DejaVuSans-31"/>
       <use x="63.623047" xlink:href="#DejaVuSans-35"/>
       <use x="127.246094" xlink:href="#DejaVuSans-30"/>
      </g>
     </g>
    </g>
    <g id="ytick_5">
     <g id="line2d_15">
      <path clip-path="url(#p9eb06e0456)" d="M 216 145.018402 
L 824.727273 145.018402 
" style="fill:none;stroke:#b0b0b0;stroke-linecap:square;stroke-width:0.8;"/>
     </g>
     <g id="line2d_16">
      <g>
       <use style="stroke:#000000;stroke-width:0.8;" x="216" xlink:href="#md6b9aeb1af" y="145.018402"/>
      </g>
     </g>
     <g id="text_9">
      <!-- 200 -->
      <g transform="translate(186.095 149.577465)scale(0.12 -0.12)">
       <use xlink:href="#DejaVuSans-32"/>
       <use x="63.623047" xlink:href="#DejaVuSans-30"/>
       <use x="127.246094" xlink:href="#DejaVuSans-30"/>
      </g>
     </g>
    </g>
    <g id="text_10">
     <!-- images/sec -->
     <defs>
      <path d="M 9.421875 54.6875 
L 18.40625 54.6875 
L 18.40625 0 
L 9.421875 0 
z
M 9.421875 75.984375 
L 18.40625 75.984375 
L 18.40625 64.59375 
L 9.421875 64.59375 
z
" id="DejaVuSans-69"/>
      <path d="M 25.390625 72.90625 
L 33.6875 72.90625 
L 8.296875 -9.28125 
L 0 -9.28125 
z
" id="DejaVuSans-2f"/>
      <path d="M 48.78125 52.59375 
L 48.78125 44.1875 
Q 44.96875 46.296875 41.140625 47.34375 
Q 37.3125 48.390625 33.40625 48.390625 
Q 24.65625 48.390625 19.8125 42.84375 
Q 14.984375 37.3125 14.984375 27.296875 
Q 14.984375 17.28125 19.8125 11.734375 
Q 24.65625 6.203125 33.40625 6.203125 
Q 37.3125 6.203125 41.140625 7.25 
Q 44.96875 8.296875 48.78125 10.40625 
L 48.78125 2.09375 
Q 45.015625 0.34375 40.984375 -0.53125 
Q 36.96875 -1.421875 32.421875 -1.421875 
Q 20.0625 -1.421875 12.78125 6.34375 
Q 5.515625 14.109375 5.515625 27.296875 
Q 5.515625 40.671875 12.859375 48.328125 
Q 20.21875 56 33.015625 56 
Q 37.15625 56 41.109375 55.140625 
Q 45.0625 54.296875 48.78125 52.59375 
z
" id="DejaVuSans-63"/>
     </defs>
     <g transform="translate(179.10025 327.303)rotate(-90)scale(0.144 -0.144)">
      <use xlink:href="#DejaVuSans-69"/>
      <use x="27.783203" xlink:href="#DejaVuSans-6d"/>
      <use x="125.195312" xlink:href="#DejaVuSans-61"/>
      <use x="186.474609" xlink:href="#DejaVuSans-67"/>
      <use x="249.951172" xlink:href="#DejaVuSans-65"/>
      <use x="311.474609" xlink:href="#DejaVuSans-73"/>
      <use x="363.574219" xlink:href="#DejaVuSans-2f"/>
      <use x="397.265625" xlink:href="#DejaVuSans-73"/>
      <use x="449.365234" xlink:href="#DejaVuSans-65"/>
      <use x="510.888672" xlink:href="#DejaVuSans-63"/>
     </g>
    </g>
   </g>
   <g id="line2d_17">
    <path clip-path="url(#p9eb06e0456)" d="M 262.512397 486.05092 
L 381.520661 414.254601 
" style="fill:none;stroke:#000000;stroke-dasharray:3.7,1.6;stroke-dashoffset:0;"/>
   </g>
   <g id="line2d_18">
    <path clip-path="url(#p9eb06e0456)" d="M 460.859504 486.05092 
L 579.867769 414.254601 
" style="fill:none;stroke:#000000;stroke-dasharray:3.7,1.6;stroke-dashoffset:0;"/>
   </g>
   <g id="line2d_19">
    <path clip-path="url(#p9eb06e0456)" d="M 659.206612 486.05092 
L 778.214876 414.254601 
" style="fill:none;stroke:#000000;stroke-dasharray:3.7,1.6;stroke-dashoffset:0;"/>
   </g>
   <g id="patch_15">
    <path d="M 216 504 
L 216 69.12 
" style="fill:none;stroke:#000000;stroke-linecap:square;stroke-linejoin:miter;stroke-width:0.8;"/>
   </g>
   <g id="patch_16">
    <path d="M 824.727273 504 
L 824.727273 69.12 
" style="fill:none;stroke:#000000;stroke-linecap:square;stroke-linejoin:miter;stroke-width:0.8;"/>
   </g>
   <g id="patch_17">
    <path d="M 216 504 
L 824.727273 504 
" style="fill:none;stroke:#000000;stroke-linecap:square;stroke-linejoin:miter;stroke-width:0.8;"/>
   </g>
   <g id="patch_18">
    <path d="M 216 69.12 
L 824.727273 69.12 
" style="fill:none;stroke:#000000;stroke-linecap:square;stroke-linejoin:miter;stroke-width:0.8;"/>
   </g>
   <g id="text_11">
    <!-- 30.00 -->
    <defs>
     <path d="M 40.578125 39.3125 
Q 47.65625 37.796875 51.625 33 
Q 55.609375 28.21875 55.609375 21.1875 
Q 55.609375 10.40625 48.1875 4.484375 
Q 40.765625 -1.421875 27.09375 -1.421875 
Q 22.515625 -1.421875 17.65625 -0.515625 
Q 12.796875 0.390625 7.625 2.203125 
L 7.625 11.71875 
Q 11.71875 9.328125 16.59375 8.109375 
Q 21.484375 6.890625 26.8125 6.890625 
Q 36.078125 6.890625 40.9375 10.546875 
Q 45.796875 14.203125 45.796875 21.1875 
Q 45.796875 27.640625 41.28125 31.265625 
Q 36.765625 34.90625 28.71875 34.90625 
L 20.21875 34.90625 
L 20.21875 43.015625 
L 29.109375 43.015625 
Q 36.375 43.015625 40.234375 45.921875 
Q 44.09375 48.828125 44.09375 54.296875 
Q 44.09375 59.90625 40.109375 62.90625 
Q 36.140625 65.921875 28.71875 65.921875 
Q 24.65625 65.921875 20.015625 65.03125 
Q 15.375 64.15625 9.8125 62.3125 
L 9.8125 71.09375 
Q 15.4375 72.65625 20.34375 73.4375 
Q 25.25 74.21875 29.59375 74.21875 
Q 40.828125 74.21875 47.359375 69.109375 
Q 53.90625 64.015625 53.90625 55.328125 
Q 53.90625 49.265625 50.4375 45.09375 
Q 46.96875 40.921875 40.578125 39.3125 
z
" id="DejaVuSans-33"/>
    </defs>
    <g transform="translate(245.335522 446.011046)scale(0.12 -0.12)">
     <use xlink:href="#DejaVuSans-33"/>
     <use x="63.623047" xlink:href="#DejaVuSans-30"/>
     <use x="127.246094" xlink:href="#DejaVuSans-2e"/>
     <use x="159.033203" xlink:href="#DejaVuSans-30"/>
     <use x="222.65625" xlink:href="#DejaVuSans-30"/>
    </g>
   </g>
   <g id="text_12">
    <!-- 30.55 -->
    <g transform="translate(443.682629 445.023847)scale(0.12 -0.12)">
     <use xlink:href="#DejaVuSans-33"/>
     <use x="63.623047" xlink:href="#DejaVuSans-30"/>
     <use x="127.246094" xlink:href="#DejaVuSans-2e"/>
     <use x="159.033203" xlink:href="#DejaVuSans-35"/>
     <use x="222.65625" xlink:href="#DejaVuSans-35"/>
    </g>
   </g>
   <g id="text_13">
    <!-- 30.55 -->
    <g transform="translate(642.029737 445.023847)scale(0.12 -0.12)">
     <use xlink:href="#DejaVuSans-33"/>
     <use x="63.623047" xlink:href="#DejaVuSans-30"/>
     <use x="127.246094" xlink:href="#DejaVuSans-2e"/>
     <use x="159.033203" xlink:href="#DejaVuSans-35"/>
     <use x="222.65625" xlink:href="#DejaVuSans-35"/>
    </g>
   </g>
   <g id="text_14">
    <!-- 58.00 -->
    <g transform="translate(285.004943 395.753622)scale(0.12 -0.12)">
     <use xlink:href="#DejaVuSans-35"/>
     <use x="63.623047" xlink:href="#DejaVuSans-38"/>
     <use x="127.246094" xlink:href="#DejaVuSans-2e"/>
     <use x="159.033203" xlink:href="#DejaVuSans-30"/>
     <use x="222.65625" xlink:href="#DejaVuSans-30"/>
    </g>
   </g>
   <g id="text_15">
    <!-- 58.38 -->
    <g transform="translate(483.352051 395.075147)scale(0.12 -0.12)">
     <use xlink:href="#DejaVuSans-35"/>
     <use x="63.623047" xlink:href="#DejaVuSans-38"/>
     <use x="127.246094" xlink:href="#DejaVuSans-2e"/>
     <use x="159.033203" xlink:href="#DejaVuSans-33"/>
     <use x="222.65625" xlink:href="#DejaVuSans-38"/>
    </g>
   </g>
   <g id="text_16">
    <!-- 57.45 -->
    <defs>
     <path d="M 8.203125 72.90625 
L 55.078125 72.90625 
L 55.078125 68.703125 
L 28.609375 0 
L 18.3125 0 
L 43.21875 64.59375 
L 8.203125 64.59375 
z
" id="DejaVuSans-37"/>
     <path d="M 37.796875 64.3125 
L 12.890625 25.390625 
L 37.796875 25.390625 
z
M 35.203125 72.90625 
L 47.609375 72.90625 
L 47.609375 25.390625 
L 58.015625 25.390625 
L 58.015625 17.1875 
L 47.609375 17.1875 
L 47.609375 0 
L 37.796875 0 
L 37.796875 17.1875 
L 4.890625 17.1875 
L 4.890625 26.703125 
z
" id="DejaVuSans-34"/>
    </defs>
    <g transform="translate(681.699158 396.744412)scale(0.12 -0.12)">
     <use xlink:href="#DejaVuSans-35"/>
     <use x="63.623047" xlink:href="#DejaVuSans-37"/>
     <use x="127.246094" xlink:href="#DejaVuSans-2e"/>
     <use x="159.033203" xlink:href="#DejaVuSans-34"/>
     <use x="222.65625" xlink:href="#DejaVuSans-35"/>
    </g>
   </g>
   <g id="text_17">
    <!-- 116.00 -->
    <defs>
     <path d="M 33.015625 40.375 
Q 26.375 40.375 22.484375 35.828125 
Q 18.609375 31.296875 18.609375 23.390625 
Q 18.609375 15.53125 22.484375 10.953125 
Q 26.375 6.390625 33.015625 6.390625 
Q 39.65625 6.390625 43.53125 10.953125 
Q 47.40625 15.53125 47.40625 23.390625 
Q 47.40625 31.296875 43.53125 35.828125 
Q 39.65625 40.375 33.015625 40.375 
z
M 52.59375 71.296875 
L 52.59375 62.3125 
Q 48.875 64.0625 45.09375 64.984375 
Q 41.3125 65.921875 37.59375 65.921875 
Q 27.828125 65.921875 22.671875 59.328125 
Q 17.53125 52.734375 16.796875 39.40625 
Q 19.671875 43.65625 24.015625 45.921875 
Q 28.375 48.1875 33.59375 48.1875 
Q 44.578125 48.1875 50.953125 41.515625 
Q 57.328125 34.859375 57.328125 23.390625 
Q 57.328125 12.15625 50.6875 5.359375 
Q 44.046875 -1.421875 33.015625 -1.421875 
Q 20.359375 -1.421875 13.671875 8.265625 
Q 6.984375 17.96875 6.984375 36.375 
Q 6.984375 53.65625 15.1875 63.9375 
Q 23.390625 74.21875 37.203125 74.21875 
Q 40.921875 74.21875 44.703125 73.484375 
Q 48.484375 72.75 52.59375 71.296875 
z
" id="DejaVuSans-36"/>
    </defs>
    <g transform="translate(320.856865 291.648959)scale(0.12 -0.12)">
     <use xlink:href="#DejaVuSans-31"/>
     <use x="63.623047" xlink:href="#DejaVuSans-31"/>
     <use x="127.246094" xlink:href="#DejaVuSans-36"/>
     <use x="190.869141" xlink:href="#DejaVuSans-2e"/>
     <use x="222.65625" xlink:href="#DejaVuSans-30"/>
     <use x="286.279297" xlink:href="#DejaVuSans-30"/>
    </g>
   </g>
   <g id="text_18">
    <!-- 116.34 -->
    <g transform="translate(519.203972 291.04228)scale(0.12 -0.12)">
     <use xlink:href="#DejaVuSans-31"/>
     <use x="63.623047" xlink:href="#DejaVuSans-31"/>
     <use x="127.246094" xlink:href="#DejaVuSans-36"/>
     <use x="190.869141" xlink:href="#DejaVuSans-2e"/>
     <use x="222.65625" xlink:href="#DejaVuSans-33"/>
     <use x="286.279297" xlink:href="#DejaVuSans-34"/>
    </g>
   </g>
   <g id="text_19">
    <!-- 114.57 -->
    <g transform="translate(717.55108 294.219626)scale(0.12 -0.12)">
     <use xlink:href="#DejaVuSans-31"/>
     <use x="63.623047" xlink:href="#DejaVuSans-31"/>
     <use x="127.246094" xlink:href="#DejaVuSans-34"/>
     <use x="190.869141" xlink:href="#DejaVuSans-2e"/>
     <use x="222.65625" xlink:href="#DejaVuSans-35"/>
     <use x="286.279297" xlink:href="#DejaVuSans-37"/>
    </g>
   </g>
   <g id="text_20">
    <!-- 227.00 -->
    <g transform="translate(360.526286 92.414172)scale(0.12 -0.12)">
     <use xlink:href="#DejaVuSans-32"/>
     <use x="63.623047" xlink:href="#DejaVuSans-32"/>
     <use x="127.246094" xlink:href="#DejaVuSans-37"/>
     <use x="190.869141" xlink:href="#DejaVuSans-2e"/>
     <use x="222.65625" xlink:href="#DejaVuSans-30"/>
     <use x="286.279297" xlink:href="#DejaVuSans-30"/>
    </g>
   </g>
   <g id="text_21">
    <!-- 230.75 -->
    <g transform="translate(558.873394 85.686857)scale(0.12 -0.12)">
     <use xlink:href="#DejaVuSans-32"/>
     <use x="63.623047" xlink:href="#DejaVuSans-33"/>
     <use x="127.246094" xlink:href="#DejaVuSans-30"/>
     <use x="190.869141" xlink:href="#DejaVuSans-2e"/>
     <use x="222.65625" xlink:href="#DejaVuSans-37"/>
     <use x="286.279297" xlink:href="#DejaVuSans-35"/>
    </g>
   </g>
   <g id="text_22">
    <!-- 228.41 -->
    <g transform="translate(757.220501 89.883352)scale(0.12 -0.12)">
     <use xlink:href="#DejaVuSans-32"/>
     <use x="63.623047" xlink:href="#DejaVuSans-32"/>
     <use x="127.246094" xlink:href="#DejaVuSans-38"/>
     <use x="190.869141" xlink:href="#DejaVuSans-2e"/>
     <use x="222.65625" xlink:href="#DejaVuSans-34"/>
     <use x="286.279297" xlink:href="#DejaVuSans-31"/>
    </g>
   </g>
   <g id="text_23">
    <g id="patch_19">
     <path d="M 228.174545 120.747525 
L 311.515014 120.747525 
Q 314.815014 120.747525 314.815014 117.447525 
L 314.815014 82.1664 
Q 314.815014 78.8664 311.515014 78.8664 
L 228.174545 78.8664 
Q 224.874545 78.8664 224.874545 82.1664 
L 224.874545 117.447525 
Q 224.874545 120.747525 228.174545 120.747525 
z
" style="fill:#f5deb3;opacity:0.5;stroke:#000000;stroke-linejoin:miter;"/>
    </g>
    <!-- GPUs per node -->
    <defs>
     <path d="M 19.671875 64.796875 
L 19.671875 37.40625 
L 32.078125 37.40625 
Q 38.96875 37.40625 42.71875 40.96875 
Q 46.484375 44.53125 46.484375 51.125 
Q 46.484375 57.671875 42.71875 61.234375 
Q 38.96875 64.796875 32.078125 64.796875 
z
M 9.8125 72.90625 
L 32.078125 72.90625 
Q 44.34375 72.90625 50.609375 67.359375 
Q 56.890625 61.8125 56.890625 51.125 
Q 56.890625 40.328125 50.609375 34.8125 
Q 44.34375 29.296875 32.078125 29.296875 
L 19.671875 29.296875 
L 19.671875 0 
L 9.8125 0 
z
" id="DejaVuSans-50"/>
     <path d="M 8.6875 72.90625 
L 18.609375 72.90625 
L 18.609375 28.609375 
Q 18.609375 16.890625 22.84375 11.734375 
Q 27.09375 6.59375 36.625 6.59375 
Q 46.09375 6.59375 50.34375 11.734375 
Q 54.59375 16.890625 54.59375 28.609375 
L 54.59375 72.90625 
L 64.5 72.90625 
L 64.5 27.390625 
Q 64.5 13.140625 57.4375 5.859375 
Q 50.390625 -1.421875 36.625 -1.421875 
Q 22.796875 -1.421875 15.734375 5.859375 
Q 8.6875 13.140625 8.6875 27.390625 
z
" id="DejaVuSans-55"/>
     <path d="M 45.40625 46.390625 
L 45.40625 75.984375 
L 54.390625 75.984375 
L 54.390625 0 
L 45.40625 0 
L 45.40625 8.203125 
Q 42.578125 3.328125 38.25 0.953125 
Q 33.9375 -1.421875 27.875 -1.421875 
Q 17.96875 -1.421875 11.734375 6.484375 
Q 5.515625 14.40625 5.515625 27.296875 
Q 5.515625 40.1875 11.734375 48.09375 
Q 17.96875 56 27.875 56 
Q 33.9375 56 38.25 53.625 
Q 42.578125 51.265625 45.40625 46.390625 
z
M 14.796875 27.296875 
Q 14.796875 17.390625 18.875 11.75 
Q 22.953125 6.109375 30.078125 6.109375 
Q 37.203125 6.109375 41.296875 11.75 
Q 45.40625 17.390625 45.40625 27.296875 
Q 45.40625 37.203125 41.296875 42.84375 
Q 37.203125 48.484375 30.078125 48.484375 
Q 22.953125 48.484375 18.875 42.84375 
Q 14.796875 37.203125 14.796875 27.296875 
z
" id="DejaVuSans-64"/>
    </defs>
    <g transform="translate(228.174545 90.524681)scale(0.11 -0.11)">
     <use xlink:href="#DejaVuSans-47"/>
     <use x="77.490234" xlink:href="#DejaVuSans-50"/>
     <use x="137.792969" xlink:href="#DejaVuSans-55"/>
     <use x="210.986328" xlink:href="#DejaVuSans-73"/>
     <use x="263.085938" xlink:href="#DejaVuSans-20"/>
     <use x="294.873047" xlink:href="#DejaVuSans-70"/>
     <use x="358.349609" xlink:href="#DejaVuSans-65"/>
     <use x="419.873047" xlink:href="#DejaVuSans-72"/>
     <use x="460.986328" xlink:href="#DejaVuSans-20"/>
     <use x="492.773438" xlink:href="#DejaVuSans-6e"/>
     <use x="556.152344" xlink:href="#DejaVuSans-6f"/>
     <use x="617.333984" xlink:href="#DejaVuSans-64"/>
     <use x="680.810547" xlink:href="#DejaVuSans-65"/>
    </g>
    <!-- - - - - - - - - - - - - - - - - - - - - - -->
    <defs>
     <path d="M 4.890625 31.390625 
L 31.203125 31.390625 
L 31.203125 23.390625 
L 4.890625 23.390625 
z
" id="DejaVuSans-2d"/>
    </defs>
    <g transform="translate(228.174545 102.842275)scale(0.11 -0.11)">
     <use xlink:href="#DejaVuSans-2d"/>
     <use x="36.083984" xlink:href="#DejaVuSans-2d"/>
     <use x="72.167969" xlink:href="#DejaVuSans-2d"/>
     <use x="108.251953" xlink:href="#DejaVuSans-2d"/>
     <use x="144.335938" xlink:href="#DejaVuSans-2d"/>
     <use x="180.419922" xlink:href="#DejaVuSans-2d"/>
     <use x="216.503906" xlink:href="#DejaVuSans-2d"/>
     <use x="252.587891" xlink:href="#DejaVuSans-2d"/>
     <use x="288.671875" xlink:href="#DejaVuSans-2d"/>
     <use x="324.755859" xlink:href="#DejaVuSans-2d"/>
     <use x="360.839844" xlink:href="#DejaVuSans-2d"/>
     <use x="396.923828" xlink:href="#DejaVuSans-2d"/>
     <use x="433.007812" xlink:href="#DejaVuSans-2d"/>
     <use x="469.091797" xlink:href="#DejaVuSans-2d"/>
     <use x="505.175781" xlink:href="#DejaVuSans-2d"/>
     <use x="541.259766" xlink:href="#DejaVuSans-2d"/>
     <use x="577.34375" xlink:href="#DejaVuSans-2d"/>
     <use x="613.427734" xlink:href="#DejaVuSans-2d"/>
     <use x="649.511719" xlink:href="#DejaVuSans-2d"/>
     <use x="685.595703" xlink:href="#DejaVuSans-2d"/>
     <use x="721.679688" xlink:href="#DejaVuSans-2d"/>
    </g>
    <!--       Nodes -->
    <defs>
     <path d="M 9.8125 72.90625 
L 23.09375 72.90625 
L 55.421875 11.921875 
L 55.421875 72.90625 
L 64.984375 72.90625 
L 64.984375 0 
L 51.703125 0 
L 19.390625 60.984375 
L 19.390625 0 
L 9.8125 0 
z
" id="DejaVuSans-4e"/>
    </defs>
    <g transform="translate(228.174545 115.159869)scale(0.11 -0.11)">
     <use xlink:href="#DejaVuSans-20"/>
     <use x="31.787109" xlink:href="#DejaVuSans-20"/>
     <use x="63.574219" xlink:href="#DejaVuSans-20"/>
     <use x="95.361328" xlink:href="#DejaVuSans-20"/>
     <use x="127.148438" xlink:href="#DejaVuSans-20"/>
     <use x="158.935547" xlink:href="#DejaVuSans-20"/>
     <use x="190.722656" xlink:href="#DejaVuSans-4e"/>
     <use x="265.527344" xlink:href="#DejaVuSans-6f"/>
     <use x="326.708984" xlink:href="#DejaVuSans-64"/>
     <use x="390.185547" xlink:href="#DejaVuSans-65"/>
     <use x="451.708984" xlink:href="#DejaVuSans-73"/>
    </g>
   </g>
   <g id="text_24">
    <!-- 1 -->
    <g transform="translate(258.694897 479.838349)scale(0.12 -0.12)">
     <use xlink:href="#DejaVuSans-31"/>
    </g>
   </g>
   <g id="text_25">
    <!-- 1 -->
    <g transform="translate(258.694897 498.476063)scale(0.12 -0.12)">
     <use xlink:href="#DejaVuSans-31"/>
    </g>
   </g>
   <g id="text_26">
    <!-- 2 -->
    <g transform="translate(298.364318 455.906242)scale(0.12 -0.12)">
     <use xlink:href="#DejaVuSans-32"/>
    </g>
   </g>
   <g id="text_27">
    <!-- 1 -->
    <g transform="translate(298.364318 474.543956)scale(0.12 -0.12)">
     <use xlink:href="#DejaVuSans-31"/>
    </g>
   </g>
   <g id="text_28">
    <!-- 4 -->
    <g transform="translate(338.03374 431.974136)scale(0.12 -0.12)">
     <use xlink:href="#DejaVuSans-34"/>
    </g>
   </g>
   <g id="text_29">
    <!-- 1 -->
    <g transform="translate(338.03374 450.61185)scale(0.12 -0.12)">
     <use xlink:href="#DejaVuSans-31"/>
    </g>
   </g>
   <g id="text_30">
    <!-- 8 -->
    <g transform="translate(377.703161 408.042029)scale(0.12 -0.12)">
     <use xlink:href="#DejaVuSans-38"/>
    </g>
   </g>
   <g id="text_31">
    <!-- 1 -->
    <g transform="translate(377.703161 426.679743)scale(0.12 -0.12)">
     <use xlink:href="#DejaVuSans-31"/>
    </g>
   </g>
   <g id="text_32">
    <!-- 1 -->
    <g transform="translate(457.042004 479.838349)scale(0.12 -0.12)">
     <use xlink:href="#DejaVuSans-31"/>
    </g>
   </g>
   <g id="text_33">
    <!-- 1 -->
    <g transform="translate(457.042004 498.476063)scale(0.12 -0.12)">
     <use xlink:href="#DejaVuSans-31"/>
    </g>
   </g>
   <g id="text_34">
    <!-- 2 -->
    <g transform="translate(496.711426 455.906242)scale(0.12 -0.12)">
     <use xlink:href="#DejaVuSans-32"/>
    </g>
   </g>
   <g id="text_35">
    <!-- 1 -->
    <g transform="translate(496.711426 474.543956)scale(0.12 -0.12)">
     <use xlink:href="#DejaVuSans-31"/>
    </g>
   </g>
   <g id="text_36">
    <!-- 4 -->
    <g transform="translate(536.380847 431.974136)scale(0.12 -0.12)">
     <use xlink:href="#DejaVuSans-34"/>
    </g>
   </g>
   <g id="text_37">
    <!-- 1 -->
    <g transform="translate(536.380847 450.61185)scale(0.12 -0.12)">
     <use xlink:href="#DejaVuSans-31"/>
    </g>
   </g>
   <g id="text_38">
    <!-- 8 -->
    <g transform="translate(576.050269 408.042029)scale(0.12 -0.12)">
     <use xlink:href="#DejaVuSans-38"/>
    </g>
   </g>
   <g id="text_39">
    <!-- 1 -->
    <g transform="translate(576.050269 426.679743)scale(0.12 -0.12)">
     <use xlink:href="#DejaVuSans-31"/>
    </g>
   </g>
   <g id="text_40">
    <!-- 1 -->
    <g transform="translate(655.389112 479.838349)scale(0.12 -0.12)">
     <use xlink:href="#DejaVuSans-31"/>
    </g>
   </g>
   <g id="text_41">
    <!-- 1 -->
    <g transform="translate(655.389112 498.476063)scale(0.12 -0.12)">
     <use xlink:href="#DejaVuSans-31"/>
    </g>
   </g>
   <g id="text_42">
    <!-- 1 -->
    <g transform="translate(695.058533 455.906242)scale(0.12 -0.12)">
     <use xlink:href="#DejaVuSans-31"/>
    </g>
   </g>
   <g id="text_43">
    <!-- 2 -->
    <g transform="translate(695.058533 474.543956)scale(0.12 -0.12)">
     <use xlink:href="#DejaVuSans-32"/>
    </g>
   </g>
   <g id="text_44">
    <!-- 1 -->
    <g transform="translate(734.727955 431.974136)scale(0.12 -0.12)">
     <use xlink:href="#DejaVuSans-31"/>
    </g>
   </g>
   <g id="text_45">
    <!-- 4 -->
    <g transform="translate(734.727955 450.61185)scale(0.12 -0.12)">
     <use xlink:href="#DejaVuSans-34"/>
    </g>
   </g>
   <g id="text_46">
    <!-- 1 -->
    <g transform="translate(774.397376 408.042029)scale(0.12 -0.12)">
     <use xlink:href="#DejaVuSans-31"/>
    </g>
   </g>
   <g id="text_47">
    <!-- 8 -->
    <g transform="translate(774.397376 426.679743)scale(0.12 -0.12)">
     <use xlink:href="#DejaVuSans-38"/>
    </g>
   </g>
   <g id="text_48">
    <!-- Training: no I/O (1,2,4, and 8 GPUs) -->
    <defs>
     <path d="M -0.296875 72.90625 
L 61.375 72.90625 
L 61.375 64.59375 
L 35.5 64.59375 
L 35.5 0 
L 25.59375 0 
L 25.59375 64.59375 
L -0.296875 64.59375 
z
" id="DejaVuSans-54"/>
     <path d="M 11.71875 12.40625 
L 22.015625 12.40625 
L 22.015625 0 
L 11.71875 0 
z
M 11.71875 51.703125 
L 22.015625 51.703125 
L 22.015625 39.3125 
L 11.71875 39.3125 
z
" id="DejaVuSans-3a"/>
     <path d="M 9.8125 72.90625 
L 19.671875 72.90625 
L 19.671875 0 
L 9.8125 0 
z
" id="DejaVuSans-49"/>
     <path d="M 39.40625 66.21875 
Q 28.65625 66.21875 22.328125 58.203125 
Q 16.015625 50.203125 16.015625 36.375 
Q 16.015625 22.609375 22.328125 14.59375 
Q 28.65625 6.59375 39.40625 6.59375 
Q 50.140625 6.59375 56.421875 14.59375 
Q 62.703125 22.609375 62.703125 36.375 
Q 62.703125 50.203125 56.421875 58.203125 
Q 50.140625 66.21875 39.40625 66.21875 
z
M 39.40625 74.21875 
Q 54.734375 74.21875 63.90625 63.9375 
Q 73.09375 53.65625 73.09375 36.375 
Q 73.09375 19.140625 63.90625 8.859375 
Q 54.734375 -1.421875 39.40625 -1.421875 
Q 24.03125 -1.421875 14.8125 8.828125 
Q 5.609375 19.09375 5.609375 36.375 
Q 5.609375 53.65625 14.8125 63.9375 
Q 24.03125 74.21875 39.40625 74.21875 
z
" id="DejaVuSans-4f"/>
     <path d="M 31 75.875 
Q 24.46875 64.65625 21.28125 53.65625 
Q 18.109375 42.671875 18.109375 31.390625 
Q 18.109375 20.125 21.3125 9.0625 
Q 24.515625 -2 31 -13.1875 
L 23.1875 -13.1875 
Q 15.875 -1.703125 12.234375 9.375 
Q 8.59375 20.453125 8.59375 31.390625 
Q 8.59375 42.28125 12.203125 53.3125 
Q 15.828125 64.359375 23.1875 75.875 
z
" id="DejaVuSans-28"/>
     <path d="M 11.71875 12.40625 
L 22.015625 12.40625 
L 22.015625 4 
L 14.015625 -11.625 
L 7.71875 -11.625 
L 11.71875 4 
z
" id="DejaVuSans-2c"/>
     <path d="M 8.015625 75.875 
L 15.828125 75.875 
Q 23.140625 64.359375 26.78125 53.3125 
Q 30.421875 42.28125 30.421875 31.390625 
Q 30.421875 20.453125 26.78125 9.375 
Q 23.140625 -1.703125 15.828125 -13.1875 
L 8.015625 -13.1875 
Q 14.5 -2 17.703125 9.0625 
Q 20.90625 20.125 20.90625 31.390625 
Q 20.90625 42.671875 17.703125 53.65625 
Q 14.5 64.65625 8.015625 75.875 
z
" id="DejaVuSans-29"/>
    </defs>
    <g transform="translate(366.660736 63.12)scale(0.1728 -0.1728)">
     <use xlink:href="#DejaVuSans-54"/>
     <use x="60.865234" xlink:href="#DejaVuSans-72"/>
     <use x="101.978516" xlink:href="#DejaVuSans-61"/>
     <use x="163.257812" xlink:href="#DejaVuSans-69"/>
     <use x="191.041016" xlink:href="#DejaVuSans-6e"/>
     <use x="254.419922" xlink:href="#DejaVuSans-69"/>
     <use x="282.203125" xlink:href="#DejaVuSans-6e"/>
     <use x="345.582031" xlink:href="#DejaVuSans-67"/>
     <use x="409.058594" xlink:href="#DejaVuSans-3a"/>
     <use x="442.75" xlink:href="#DejaVuSans-20"/>
     <use x="474.537109" xlink:href="#DejaVuSans-6e"/>
     <use x="537.916016" xlink:href="#DejaVuSans-6f"/>
     <use x="599.097656" xlink:href="#DejaVuSans-20"/>
     <use x="630.884766" xlink:href="#DejaVuSans-49"/>
     <use x="660.376953" xlink:href="#DejaVuSans-2f"/>
     <use x="694.068359" xlink:href="#DejaVuSans-4f"/>
     <use x="772.779297" xlink:href="#DejaVuSans-20"/>
     <use x="804.566406" xlink:href="#DejaVuSans-28"/>
     <use x="843.580078" xlink:href="#DejaVuSans-31"/>
     <use x="907.203125" xlink:href="#DejaVuSans-2c"/>
     <use x="938.990234" xlink:href="#DejaVuSans-32"/>
     <use x="1002.613281" xlink:href="#DejaVuSans-2c"/>
     <use x="1034.400391" xlink:href="#DejaVuSans-34"/>
     <use x="1098.023438" xlink:href="#DejaVuSans-2c"/>
     <use x="1129.810547" xlink:href="#DejaVuSans-20"/>
     <use x="1161.597656" xlink:href="#DejaVuSans-61"/>
     <use x="1222.876953" xlink:href="#DejaVuSans-6e"/>
     <use x="1286.255859" xlink:href="#DejaVuSans-64"/>
     <use x="1349.732422" xlink:href="#DejaVuSans-20"/>
     <use x="1381.519531" xlink:href="#DejaVuSans-38"/>
     <use x="1445.142578" xlink:href="#DejaVuSans-20"/>
     <use x="1476.929688" xlink:href="#DejaVuSans-47"/>
     <use x="1554.419922" xlink:href="#DejaVuSans-50"/>
     <use x="1614.722656" xlink:href="#DejaVuSans-55"/>
     <use x="1687.916016" xlink:href="#DejaVuSans-73"/>
     <use x="1740.015625" xlink:href="#DejaVuSans-29"/>
    </g>
   </g>
  </g>
  <g id="axes_2">
   <g id="patch_20">
    <path d="M 946.472727 504 
L 1555.2 504 
L 1555.2 69.12 
L 946.472727 69.12 
z
" style="fill:#ffffff;"/>
   </g>
   <g id="matplotlib.axis_3">
    <g id="xtick_4">
     <g id="line2d_20">
      <path clip-path="url(#pa1ae7d8017)" d="M 974.142149 504 
L 974.142149 69.12 
" style="fill:none;stroke:#b0b0b0;stroke-linecap:square;stroke-width:0.8;"/>
     </g>
     <g id="line2d_21">
      <g>
       <use style="stroke:#000000;stroke-width:0.8;" x="974.142149" xlink:href="#m03386776f4" y="504"/>
      </g>
     </g>
     <g id="text_49">
      <!-- 1 -->
      <g transform="translate(970.960899 518.598438)scale(0.1 -0.1)">
       <use xlink:href="#DejaVuSans-31"/>
      </g>
     </g>
    </g>
    <g id="xtick_5">
     <g id="line2d_22">
      <path clip-path="url(#pa1ae7d8017)" d="M 1158.604959 504 
L 1158.604959 69.12 
" style="fill:none;stroke:#b0b0b0;stroke-linecap:square;stroke-width:0.8;"/>
     </g>
     <g id="line2d_23">
      <g>
       <use style="stroke:#000000;stroke-width:0.8;" x="1158.604959" xlink:href="#m03386776f4" y="504"/>
      </g>
     </g>
     <g id="text_50">
      <!-- 2 -->
      <g transform="translate(1155.423709 518.598438)scale(0.1 -0.1)">
       <use xlink:href="#DejaVuSans-32"/>
      </g>
     </g>
    </g>
    <g id="xtick_6">
     <g id="line2d_24">
      <path clip-path="url(#pa1ae7d8017)" d="M 1343.067769 504 
L 1343.067769 69.12 
" style="fill:none;stroke:#b0b0b0;stroke-linecap:square;stroke-width:0.8;"/>
     </g>
     <g id="line2d_25">
      <g>
       <use style="stroke:#000000;stroke-width:0.8;" x="1343.067769" xlink:href="#m03386776f4" y="504"/>
      </g>
     </g>
     <g id="text_51">
      <!-- 4 -->
      <g transform="translate(1339.886519 518.598438)scale(0.1 -0.1)">
       <use xlink:href="#DejaVuSans-34"/>
      </g>
     </g>
    </g>
    <g id="xtick_7">
     <g id="line2d_26">
      <path clip-path="url(#pa1ae7d8017)" d="M 1527.530579 504 
L 1527.530579 69.12 
" style="fill:none;stroke:#b0b0b0;stroke-linecap:square;stroke-width:0.8;"/>
     </g>
     <g id="line2d_27">
      <g>
       <use style="stroke:#000000;stroke-width:0.8;" x="1527.530579" xlink:href="#m03386776f4" y="504"/>
      </g>
     </g>
     <g id="text_52">
      <!-- 8 -->
      <g transform="translate(1524.349329 518.598438)scale(0.1 -0.1)">
       <use xlink:href="#DejaVuSans-38"/>
      </g>
     </g>
    </g>
    <g id="text_53">
     <!-- Number of GPUs -->
     <defs>
      <path d="M 37.109375 75.984375 
L 37.109375 68.5 
L 28.515625 68.5 
Q 23.6875 68.5 21.796875 66.546875 
Q 19.921875 64.59375 19.921875 59.515625 
L 19.921875 54.6875 
L 34.71875 54.6875 
L 34.71875 47.703125 
L 19.921875 47.703125 
L 19.921875 0 
L 10.890625 0 
L 10.890625 47.703125 
L 2.296875 47.703125 
L 2.296875 54.6875 
L 10.890625 54.6875 
L 10.890625 58.5 
Q 10.890625 67.625 15.140625 71.796875 
Q 19.390625 75.984375 28.609375 75.984375 
z
" id="DejaVuSans-66"/>
     </defs>
     <g transform="translate(1191.455489 535.619875)scale(0.144 -0.144)">
      <use xlink:href="#DejaVuSans-4e"/>
      <use x="74.804688" xlink:href="#DejaVuSans-75"/>
      <use x="138.183594" xlink:href="#DejaVuSans-6d"/>
      <use x="235.595703" xlink:href="#DejaVuSans-62"/>
      <use x="299.072266" xlink:href="#DejaVuSans-65"/>
      <use x="360.595703" xlink:href="#DejaVuSans-72"/>
      <use x="401.708984" xlink:href="#DejaVuSans-20"/>
      <use x="433.496094" xlink:href="#DejaVuSans-6f"/>
      <use x="494.677734" xlink:href="#DejaVuSans-66"/>
      <use x="529.882812" xlink:href="#DejaVuSans-20"/>
      <use x="561.669922" xlink:href="#DejaVuSans-47"/>
      <use x="639.160156" xlink:href="#DejaVuSans-50"/>
      <use x="699.462891" xlink:href="#DejaVuSans-55"/>
      <use x="772.65625" xlink:href="#DejaVuSans-73"/>
     </g>
    </g>
   </g>
   <g id="matplotlib.axis_4">
    <g id="ytick_6">
     <g id="line2d_28">
      <path clip-path="url(#pa1ae7d8017)" d="M 946.472727 484.232727 
L 1555.2 484.232727 
" style="fill:none;stroke:#b0b0b0;stroke-linecap:square;stroke-width:0.8;"/>
     </g>
     <g id="line2d_29">
      <g>
       <use style="stroke:#000000;stroke-width:0.8;" x="946.472727" xlink:href="#md6b9aeb1af" y="484.232727"/>
      </g>
     </g>
     <g id="text_54">
      <!-- 1 -->
      <g transform="translate(933.110227 488.031946)scale(0.1 -0.1)">
       <use xlink:href="#DejaVuSans-31"/>
      </g>
     </g>
    </g>
    <g id="ytick_7">
     <g id="line2d_30">
      <path clip-path="url(#pa1ae7d8017)" d="M 946.472727 504.263971 
L 1555.2 504.263971 
" style="fill:none;stroke:#b0b0b0;stroke-linecap:square;stroke-width:0.5;"/>
     </g>
     <g id="line2d_31">
      <defs>
       <path d="M 0 0 
L -2 0 
" id="mf79f13ba31" style="stroke:#000000;stroke-width:0.6;"/>
      </defs>
      <g>
       <use style="stroke:#000000;stroke-width:0.6;" x="946.472727" xlink:href="#mf79f13ba31" y="504.263971"/>
      </g>
     </g>
     <g id="text_55">
      <!-- 1 -->
      <g transform="translate(934.710227 508.06319)scale(0.1 -0.1)">
       <use xlink:href="#DejaVuSans-31"/>
      </g>
     </g>
    </g>
    <g id="ytick_8">
     <g id="line2d_32">
      <path clip-path="url(#pa1ae7d8017)" d="M 946.472727 352.450909 
L 1555.2 352.450909 
" style="fill:none;stroke:#b0b0b0;stroke-linecap:square;stroke-width:0.5;"/>
     </g>
     <g id="line2d_33">
      <g>
       <use style="stroke:#000000;stroke-width:0.6;" x="946.472727" xlink:href="#mf79f13ba31" y="352.450909"/>
      </g>
     </g>
     <g id="text_56">
      <!-- 2 -->
      <g transform="translate(934.710227 356.250128)scale(0.1 -0.1)">
       <use xlink:href="#DejaVuSans-32"/>
      </g>
     </g>
    </g>
    <g id="ytick_9">
     <g id="line2d_34">
      <path clip-path="url(#pa1ae7d8017)" d="M 946.472727 275.363487 
L 1555.2 275.363487 
" style="fill:none;stroke:#b0b0b0;stroke-linecap:square;stroke-width:0.5;"/>
     </g>
     <g id="line2d_35">
      <g>
       <use style="stroke:#000000;stroke-width:0.6;" x="946.472727" xlink:href="#mf79f13ba31" y="275.363487"/>
      </g>
     </g>
     <g id="text_57">
      <!-- 3 -->
      <g transform="translate(934.710227 279.162706)scale(0.1 -0.1)">
       <use xlink:href="#DejaVuSans-33"/>
      </g>
     </g>
    </g>
    <g id="ytick_10">
     <g id="line2d_36">
      <path clip-path="url(#pa1ae7d8017)" d="M 946.472727 220.669091 
L 1555.2 220.669091 
" style="fill:none;stroke:#b0b0b0;stroke-linecap:square;stroke-width:0.5;"/>
     </g>
     <g id="line2d_37">
      <g>
       <use style="stroke:#000000;stroke-width:0.6;" x="946.472727" xlink:href="#mf79f13ba31" y="220.669091"/>
      </g>
     </g>
     <g id="text_58">
      <!-- 4 -->
      <g transform="translate(934.710227 224.46831)scale(0.1 -0.1)">
       <use xlink:href="#DejaVuSans-34"/>
      </g>
     </g>
    </g>
    <g id="ytick_11">
     <g id="line2d_38">
      <path clip-path="url(#pa1ae7d8017)" d="M 946.472727 178.244821 
L 1555.2 178.244821 
" style="fill:none;stroke:#b0b0b0;stroke-linecap:square;stroke-width:0.5;"/>
     </g>
     <g id="line2d_39">
      <g>
       <use style="stroke:#000000;stroke-width:0.6;" x="946.472727" xlink:href="#mf79f13ba31" y="178.244821"/>
      </g>
     </g>
     <g id="text_59">
      <!-- 5 -->
      <g transform="translate(934.710227 182.04404)scale(0.1 -0.1)">
       <use xlink:href="#DejaVuSans-35"/>
      </g>
     </g>
    </g>
    <g id="ytick_12">
     <g id="line2d_40">
      <path clip-path="url(#pa1ae7d8017)" d="M 946.472727 143.581669 
L 1555.2 143.581669 
" style="fill:none;stroke:#b0b0b0;stroke-linecap:square;stroke-width:0.5;"/>
     </g>
     <g id="line2d_41">
      <g>
       <use style="stroke:#000000;stroke-width:0.6;" x="946.472727" xlink:href="#mf79f13ba31" y="143.581669"/>
      </g>
     </g>
     <g id="text_60">
      <!-- 6 -->
      <g transform="translate(934.710227 147.380888)scale(0.1 -0.1)">
       <use xlink:href="#DejaVuSans-36"/>
      </g>
     </g>
    </g>
    <g id="ytick_13">
     <g id="line2d_42">
      <path clip-path="url(#pa1ae7d8017)" d="M 946.472727 114.274391 
L 1555.2 114.274391 
" style="fill:none;stroke:#b0b0b0;stroke-linecap:square;stroke-width:0.5;"/>
     </g>
     <g id="line2d_43">
      <g>
       <use style="stroke:#000000;stroke-width:0.6;" x="946.472727" xlink:href="#mf79f13ba31" y="114.274391"/>
      </g>
     </g>
     <g id="text_61">
      <!-- 7 -->
      <g transform="translate(934.710227 118.07361)scale(0.1 -0.1)">
       <use xlink:href="#DejaVuSans-37"/>
      </g>
     </g>
    </g>
    <g id="ytick_14">
     <g id="line2d_44">
      <path clip-path="url(#pa1ae7d8017)" d="M 946.472727 88.887273 
L 1555.2 88.887273 
" style="fill:none;stroke:#b0b0b0;stroke-linecap:square;stroke-width:0.5;"/>
     </g>
     <g id="line2d_45">
      <g>
       <use style="stroke:#000000;stroke-width:0.6;" x="946.472727" xlink:href="#mf79f13ba31" y="88.887273"/>
      </g>
     </g>
     <g id="text_62">
      <!-- 8 -->
      <g transform="translate(934.710227 92.686491)scale(0.1 -0.1)">
       <use xlink:href="#DejaVuSans-38"/>
      </g>
     </g>
    </g>
    <g id="text_63">
     <!-- Speedup -->
     <g transform="translate(926.115477 318.267)rotate(-90)scale(0.144 -0.144)">
      <use xlink:href="#DejaVuSans-53"/>
      <use x="63.476562" xlink:href="#DejaVuSans-70"/>
      <use x="126.953125" xlink:href="#DejaVuSans-65"/>
      <use x="188.476562" xlink:href="#DejaVuSans-65"/>
      <use x="250" xlink:href="#DejaVuSans-64"/>
      <use x="313.476562" xlink:href="#DejaVuSans-75"/>
      <use x="376.855469" xlink:href="#DejaVuSans-70"/>
     </g>
    </g>
   </g>
   <g id="line2d_46">
    <path clip-path="url(#pa1ae7d8017)" d="M 974.142149 484.232727 
L 1158.604959 358.896305 
L 1343.067769 227.114487 
L 1527.530579 99.474902 
" style="fill:none;stroke:#e69900;stroke-dasharray:3,4.95;stroke-dashoffset:0;stroke-width:3;"/>
    <defs>
     <path d="M 0 3.5 
C 0.928211 3.5 1.81853 3.131218 2.474874 2.474874 
C 3.131218 1.81853 3.5 0.928211 3.5 0 
C 3.5 -0.928211 3.131218 -1.81853 2.474874 -2.474874 
C 1.81853 -3.131218 0.928211 -3.5 0 -3.5 
C -0.928211 -3.5 -1.81853 -3.131218 -2.474874 -2.474874 
C -3.131218 -1.81853 -3.5 -0.928211 -3.5 0 
C -3.5 0.928211 -3.131218 1.81853 -2.474874 2.474874 
C -1.81853 3.131218 -0.928211 3.5 0 3.5 
z
" id="mc40be10cc8" style="stroke:#e69900;"/>
    </defs>
    <g clip-path="url(#pa1ae7d8017)">
     <use style="fill:#e69900;stroke:#e69900;" x="974.142149" xlink:href="#mc40be10cc8" y="484.232727"/>
     <use style="fill:#e69900;stroke:#e69900;" x="1158.604959" xlink:href="#mc40be10cc8" y="358.896305"/>
     <use style="fill:#e69900;stroke:#e69900;" x="1343.067769" xlink:href="#mc40be10cc8" y="227.114487"/>
     <use style="fill:#e69900;stroke:#e69900;" x="1527.530579" xlink:href="#mc40be10cc8" y="99.474902"/>
    </g>
   </g>
   <g id="line2d_47">
    <path clip-path="url(#pa1ae7d8017)" d="M 974.142149 484.232727 
L 1158.604959 361.115247 
L 1343.067769 230.015305 
L 1527.530579 99.81543 
" style="fill:none;stroke:#cc6600;stroke-dasharray:19.2,4.8,3,4.8;stroke-dashoffset:0;stroke-width:3;"/>
    <defs>
     <path d="M 0 -3.5 
L -3.5 3.5 
L 3.5 3.5 
z
" id="m08e6b62f07" style="stroke:#cc6600;stroke-linejoin:miter;"/>
    </defs>
    <g clip-path="url(#pa1ae7d8017)">
     <use style="fill:#cc6600;stroke:#cc6600;stroke-linejoin:miter;" x="974.142149" xlink:href="#m08e6b62f07" y="484.232727"/>
     <use style="fill:#cc6600;stroke:#cc6600;stroke-linejoin:miter;" x="1158.604959" xlink:href="#m08e6b62f07" y="361.115247"/>
     <use style="fill:#cc6600;stroke:#cc6600;stroke-linejoin:miter;" x="1343.067769" xlink:href="#m08e6b62f07" y="230.015305"/>
     <use style="fill:#cc6600;stroke:#cc6600;stroke-linejoin:miter;" x="1527.530579" xlink:href="#m08e6b62f07" y="99.81543"/>
    </g>
   </g>
   <g id="line2d_48">
    <path clip-path="url(#pa1ae7d8017)" d="M 974.142149 484.232727 
L 1158.604959 364.168383 
L 1343.067769 232.930422 
L 1527.530579 101.751612 
" style="fill:none;stroke:#009980;stroke-dasharray:11.1,4.8;stroke-dashoffset:0;stroke-width:3;"/>
    <defs>
     <path d="M -3.5 3.5 
L 3.5 3.5 
L 3.5 -3.5 
L -3.5 -3.5 
z
" id="m67f449a97d" style="stroke:#009980;stroke-linejoin:miter;"/>
    </defs>
    <g clip-path="url(#pa1ae7d8017)">
     <use style="fill:#009980;stroke:#009980;stroke-linejoin:miter;" x="974.142149" xlink:href="#m67f449a97d" y="484.232727"/>
     <use style="fill:#009980;stroke:#009980;stroke-linejoin:miter;" x="1158.604959" xlink:href="#m67f449a97d" y="364.168383"/>
     <use style="fill:#009980;stroke:#009980;stroke-linejoin:miter;" x="1343.067769" xlink:href="#m67f449a97d" y="232.930422"/>
     <use style="fill:#009980;stroke:#009980;stroke-linejoin:miter;" x="1527.530579" xlink:href="#m67f449a97d" y="101.751612"/>
    </g>
   </g>
   <g id="line2d_49">
    <path clip-path="url(#pa1ae7d8017)" d="M 974.142149 484.232727 
L 1158.604959 352.450909 
L 1343.067769 220.669091 
L 1527.530579 88.887273 
" style="fill:none;stroke:#808080;stroke-linecap:square;stroke-width:3;"/>
   </g>
   <g id="patch_21">
    <path d="M 946.472727 504 
L 946.472727 69.12 
" style="fill:none;stroke:#000000;stroke-linecap:square;stroke-linejoin:miter;stroke-width:0.8;"/>
   </g>
   <g id="patch_22">
    <path d="M 1555.2 504 
L 1555.2 69.12 
" style="fill:none;stroke:#000000;stroke-linecap:square;stroke-linejoin:miter;stroke-width:0.8;"/>
   </g>
   <g id="patch_23">
    <path d="M 946.472727 504 
L 1555.2 504 
" style="fill:none;stroke:#000000;stroke-linecap:square;stroke-linejoin:miter;stroke-width:0.8;"/>
   </g>
   <g id="patch_24">
    <path d="M 946.472727 69.12 
L 1555.2 69.12 
" style="fill:none;stroke:#000000;stroke-linecap:square;stroke-linejoin:miter;stroke-width:0.8;"/>
   </g>
   <g id="text_64">
    <!-- ideal -->
    <g style="fill:#808080;" transform="translate(1348.337715 186.005939)scale(0.144 -0.144)">
     <use xlink:href="#DejaVuSans-69"/>
     <use x="27.783203" xlink:href="#DejaVuSans-64"/>
     <use x="91.259766" xlink:href="#DejaVuSans-65"/>
     <use x="152.783203" xlink:href="#DejaVuSans-61"/>
     <use x="214.0625" xlink:href="#DejaVuSans-6c"/>
    </g>
   </g>
   <g id="text_65">
    <!-- Training speedup: no I/O -->
    <g transform="translate(1144.259264 63.12)scale(0.1728 -0.1728)">
     <use xlink:href="#DejaVuSans-54"/>
     <use x="60.865234" xlink:href="#DejaVuSans-72"/>
     <use x="101.978516" xlink:href="#DejaVuSans-61"/>
     <use x="163.257812" xlink:href="#DejaVuSans-69"/>
     <use x="191.041016" xlink:href="#DejaVuSans-6e"/>
     <use x="254.419922" xlink:href="#DejaVuSans-69"/>
     <use x="282.203125" xlink:href="#DejaVuSans-6e"/>
     <use x="345.582031" xlink:href="#DejaVuSans-67"/>
     <use x="409.058594" xlink:href="#DejaVuSans-20"/>
     <use x="440.845703" xlink:href="#DejaVuSans-73"/>
     <use x="492.945312" xlink:href="#DejaVuSans-70"/>
     <use x="556.421875" xlink:href="#DejaVuSans-65"/>
     <use x="617.945312" xlink:href="#DejaVuSans-65"/>
     <use x="679.46875" xlink:href="#DejaVuSans-64"/>
     <use x="742.945312" xlink:href="#DejaVuSans-75"/>
     <use x="806.324219" xlink:href="#DejaVuSans-70"/>
     <use x="869.800781" xlink:href="#DejaVuSans-3a"/>
     <use x="903.492188" xlink:href="#DejaVuSans-20"/>
     <use x="935.279297" xlink:href="#DejaVuSans-6e"/>
     <use x="998.658203" xlink:href="#DejaVuSans-6f"/>
     <use x="1059.839844" xlink:href="#DejaVuSans-20"/>
     <use x="1091.626953" xlink:href="#DejaVuSans-49"/>
     <use x="1121.119141" xlink:href="#DejaVuSans-2f"/>
     <use x="1154.810547" xlink:href="#DejaVuSans-4f"/>
    </g>
   </g>
   <g id="legend_1">
    <g id="patch_25">
     <path d="M 954.872727 151.49775 
L 1146.321477 151.49775 
Q 1148.721477 151.49775 1148.721477 149.09775 
L 1148.721477 77.52 
Q 1148.721477 75.12 1146.321477 75.12 
L 954.872727 75.12 
Q 952.472727 75.12 952.472727 77.52 
L 952.472727 149.09775 
Q 952.472727 151.49775 954.872727 151.49775 
z
" style="fill:#ffffff;opacity:0.8;stroke:#cccccc;stroke-linejoin:miter;"/>
    </g>
    <g id="text_66">
     <!-- System -->
     <g transform="translate(1023.747852 90.86175)scale(0.144 -0.144)">
      <use xlink:href="#DejaVuSans-53"/>
      <use x="63.476562" xlink:href="#DejaVuSans-79"/>
      <use x="122.65625" xlink:href="#DejaVuSans-73"/>
      <use x="174.755859" xlink:href="#DejaVuSans-74"/>
      <use x="213.964844" xlink:href="#DejaVuSans-65"/>
      <use x="275.488281" xlink:href="#DejaVuSans-6d"/>
     </g>
    </g>
    <g id="line2d_50">
     <path d="M 957.272727 104.774625 
L 981.272727 104.774625 
" style="fill:none;stroke:#e69900;stroke-dasharray:3,4.95;stroke-dashoffset:0;stroke-width:3;"/>
    </g>
    <g id="line2d_51">
     <g>
      <use style="fill:#e69900;stroke:#e69900;" x="969.272727" xlink:href="#mc40be10cc8" y="104.774625"/>
     </g>
    </g>
    <g id="text_67">
     <!-- p2.8xlarge run by Google -->
     <g transform="translate(990.872727 108.974625)scale(0.12 -0.12)">
      <use xlink:href="#DejaVuSans-70"/>
      <use x="63.476562" xlink:href="#DejaVuSans-32"/>
      <use x="127.099609" xlink:href="#DejaVuSans-2e"/>
      <use x="158.886719" xlink:href="#DejaVuSans-38"/>
      <use x="222.509766" xlink:href="#DejaVuSans-78"/>
      <use x="281.689453" xlink:href="#DejaVuSans-6c"/>
      <use x="309.472656" xlink:href="#DejaVuSans-61"/>
      <use x="370.751953" xlink:href="#DejaVuSans-72"/>
      <use x="411.849609" xlink:href="#DejaVuSans-67"/>
      <use x="475.326172" xlink:href="#DejaVuSans-65"/>
      <use x="536.849609" xlink:href="#DejaVuSans-20"/>
      <use x="568.636719" xlink:href="#DejaVuSans-72"/>
      <use x="609.75" xlink:href="#DejaVuSans-75"/>
      <use x="673.128906" xlink:href="#DejaVuSans-6e"/>
      <use x="736.507812" xlink:href="#DejaVuSans-20"/>
      <use x="768.294922" xlink:href="#DejaVuSans-62"/>
      <use x="831.771484" xlink:href="#DejaVuSans-79"/>
      <use x="890.951172" xlink:href="#DejaVuSans-20"/>
      <use x="922.738281" xlink:href="#DejaVuSans-47"/>
      <use x="1000.228516" xlink:href="#DejaVuSans-6f"/>
      <use x="1061.410156" xlink:href="#DejaVuSans-6f"/>
      <use x="1122.591797" xlink:href="#DejaVuSans-67"/>
      <use x="1186.068359" xlink:href="#DejaVuSans-6c"/>
      <use x="1213.851562" xlink:href="#DejaVuSans-65"/>
     </g>
    </g>
    <g id="line2d_52">
     <path d="M 957.272727 122.388375 
L 981.272727 122.388375 
" style="fill:none;stroke:#cc6600;stroke-dasharray:19.2,4.8,3,4.8;stroke-dashoffset:0;stroke-width:3;"/>
    </g>
    <g id="line2d_53">
     <g>
      <use style="fill:#cc6600;stroke:#cc6600;stroke-linejoin:miter;" x="969.272727" xlink:href="#m08e6b62f07" y="122.388375"/>
     </g>
    </g>
    <g id="text_68">
     <!-- p2.8xlarge run by CSCS -->
     <g transform="translate(990.872727 126.588375)scale(0.12 -0.12)">
      <use xlink:href="#DejaVuSans-70"/>
      <use x="63.476562" xlink:href="#DejaVuSans-32"/>
      <use x="127.099609" xlink:href="#DejaVuSans-2e"/>
      <use x="158.886719" xlink:href="#DejaVuSans-38"/>
      <use x="222.509766" xlink:href="#DejaVuSans-78"/>
      <use x="281.689453" xlink:href="#DejaVuSans-6c"/>
      <use x="309.472656" xlink:href="#DejaVuSans-61"/>
      <use x="370.751953" xlink:href="#DejaVuSans-72"/>
      <use x="411.849609" xlink:href="#DejaVuSans-67"/>
      <use x="475.326172" xlink:href="#DejaVuSans-65"/>
      <use x="536.849609" xlink:href="#DejaVuSans-20"/>
      <use x="568.636719" xlink:href="#DejaVuSans-72"/>
      <use x="609.75" xlink:href="#DejaVuSans-75"/>
      <use x="673.128906" xlink:href="#DejaVuSans-6e"/>
      <use x="736.507812" xlink:href="#DejaVuSans-20"/>
      <use x="768.294922" xlink:href="#DejaVuSans-62"/>
      <use x="831.771484" xlink:href="#DejaVuSans-79"/>
      <use x="890.951172" xlink:href="#DejaVuSans-20"/>
      <use x="922.738281" xlink:href="#DejaVuSans-43"/>
      <use x="992.5625" xlink:href="#DejaVuSans-53"/>
      <use x="1056.039062" xlink:href="#DejaVuSans-43"/>
      <use x="1125.863281" xlink:href="#DejaVuSans-53"/>
     </g>
    </g>
    <g id="line2d_54">
     <path d="M 957.272727 140.002125 
L 981.272727 140.002125 
" style="fill:none;stroke:#009980;stroke-dasharray:11.1,4.8;stroke-dashoffset:0;stroke-width:3;"/>
    </g>
    <g id="line2d_55">
     <g>
      <use style="fill:#009980;stroke:#009980;stroke-linejoin:miter;" x="969.272727" xlink:href="#m67f449a97d" y="140.002125"/>
     </g>
    </g>
    <g id="text_69">
     <!-- p2.xlarge run by CSCS -->
     <g transform="translate(990.872727 144.202125)scale(0.12 -0.12)">
      <use xlink:href="#DejaVuSans-70"/>
      <use x="63.476562" xlink:href="#DejaVuSans-32"/>
      <use x="127.099609" xlink:href="#DejaVuSans-2e"/>
      <use x="158.886719" xlink:href="#DejaVuSans-78"/>
      <use x="218.066406" xlink:href="#DejaVuSans-6c"/>
      <use x="245.849609" xlink:href="#DejaVuSans-61"/>
      <use x="307.128906" xlink:href="#DejaVuSans-72"/>
      <use x="348.226562" xlink:href="#DejaVuSans-67"/>
      <use x="411.703125" xlink:href="#DejaVuSans-65"/>
      <use x="473.226562" xlink:href="#DejaVuSans-20"/>
      <use x="505.013672" xlink:href="#DejaVuSans-72"/>
      <use x="546.126953" xlink:href="#DejaVuSans-75"/>
      <use x="609.505859" xlink:href="#DejaVuSans-6e"/>
      <use x="672.884766" xlink:href="#DejaVuSans-20"/>
      <use x="704.671875" xlink:href="#DejaVuSans-62"/>
      <use x="768.148438" xlink:href="#DejaVuSans-79"/>
      <use x="827.328125" xlink:href="#DejaVuSans-20"/>
      <use x="859.115234" xlink:href="#DejaVuSans-43"/>
      <use x="928.939453" xlink:href="#DejaVuSans-53"/>
      <use x="992.416016" xlink:href="#DejaVuSans-43"/>
      <use x="1062.240234" xlink:href="#DejaVuSans-53"/>
     </g>
    </g>
   </g>
  </g>
 </g>
 <defs>
  <clipPath id="p9eb06e0456">
   <rect height="434.88" width="608.727273" x="216" y="69.12"/>
  </clipPath>
  <clipPath id="pa1ae7d8017">
   <rect height="434.88" width="608.727273" x="946.472727" y="69.12"/>
  </clipPath>
 </defs>
</svg>
